<svg width="128" height="128" viewBox="0 0 128 128" fill="none" xmlns="http://www.w3.org/2000/svg">
<g filter="url(#filter0_i_1_2)">
<rect x="12" y="12" width="104" height="104" rx="24" fill="#2D2D2D"/>
<rect x="12" y="12" width="104" height="104" rx="24" fill="url(#paint0_linear_1_2)" fill-opacity="0.8"/>
</g>
<rect x="28" y="12" width="1" height="104" fill="#F0F0F2" fill-opacity="0.1"/>
<rect x="46" y="12" width="1" height="104" fill="#F0F0F2" fill-opacity="0.1"/>
<rect x="64" y="12" width="1" height="104" fill="#F0F0F2" fill-opacity="0.1"/>
<rect x="82" y="12" width="1" height="104" fill="#F0F0F2" fill-opacity="0.1"/>
<rect x="100" y="12" width="1" height="104" fill="#F0F0F2" fill-opacity="0.1"/>
<rect x="12.5" y="100.5" width="1" height="104" transform="rotate(-90 12.5 100.5)" fill="#F0F0F2" fill-opacity="0.1"/>
<rect x="12.5" y="82.5" width="1" height="104" transform="rotate(-90 12.5 82.5)" fill="#F0F0F2" fill-opacity="0.1"/>
<rect x="12.5" y="64.5" width="1" height="104" transform="rotate(-90 12.5 64.5)" fill="#F0F0F2" fill-opacity="0.1"/>
<rect x="12.5" y="46.5" width="1" height="104" transform="rotate(-90 12.5 46.5)" fill="#F0F0F2" fill-opacity="0.1"/>
<rect x="12.5" y="28.5" width="1" height="104" transform="rotate(-90 12.5 28.5)" fill="#F0F0F2" fill-opacity="0.1"/>
<rect x="28.5" y="28.5" width="72" height="72" rx="36" stroke="#F0F0F2" stroke-opacity="0.1"/>
<rect x="46.5" y="46.5" width="36" height="36" rx="18" stroke="#F0F0F2" stroke-opacity="0.1"/>
<g clip-path="url(#clip0_1_2)">
<mask id="mask0_1_2" style="mask-type:luminance" maskUnits="userSpaceOnUse" x="28" y="27" width="73" height="73">
<path d="M101 27H28V100H101V27Z" fill="white"/>
</mask>
<g mask="url(#mask0_1_2)">
<g filter="url(#filter1_d_1_2)">
<mask id="mask1_1_2" style="mask-type:alpha" maskUnits="userSpaceOnUse" x="28" y="27" width="73" height="73">
<path fill-rule="evenodd" clip-rule="evenodd" d="M79.7657 99.6879C80.9154 100.138 82.2264 100.11 83.3869 99.548L98.4161 92.279C99.9955 91.5154 101 89.9087 101 88.1461V38.8546C101 37.092 99.9955 35.4854 98.4161 34.7215L83.3869 27.4519C81.8639 26.7153 80.0816 26.8957 78.7449 27.8725C78.554 28.012 78.372 28.1679 78.2014 28.3396L49.4292 54.7251L36.8967 45.1624C35.73 44.2723 34.0982 44.3453 33.0146 45.336L28.995 49.0114C27.6696 50.2233 27.6682 52.3191 28.9917 53.5331L39.8604 63.5001L28.9917 73.4672C27.6682 74.681 27.6696 76.777 28.995 77.9889L33.0146 81.6642C34.0982 82.6549 35.73 82.7283 36.8967 81.8378L49.4292 72.2752L78.2014 98.6606C78.6565 99.1185 79.191 99.4632 79.7657 99.6879ZM82.7611 46.8424L60.9297 63.5001L82.7611 80.1579V46.8424Z" fill="white"/>
</mask>
<g mask="url(#mask1_1_2)">
<path d="M98.4168 34.7328L83.3754 27.4531C81.6343 26.6105 79.5537 26.9659 78.1874 28.3394L28.9478 73.4669C27.6234 74.6809 27.6249 76.7768 28.951 77.9886L32.9731 81.664C34.0573 82.6547 35.6902 82.7274 36.8575 81.8376L96.1531 36.6213C98.1423 35.1043 101 36.5305 101 39.0404V38.8649C101 37.1031 99.9954 35.4971 98.4168 34.7328Z" fill="#D9D9D9"/>
<g filter="url(#filter2_d_1_2)">
<path d="M98.4168 92.2674L83.3754 99.5472C81.6343 100.39 79.5537 100.034 78.1874 98.6605L28.9478 53.5329C27.6234 52.3191 27.6249 50.2231 28.951 49.0113L32.9731 45.3359C34.0573 44.3452 35.6902 44.2722 36.8575 45.1624L96.1531 90.3787C98.1423 91.8959 101 90.4696 101 87.9595V88.1353C101 89.8971 99.9954 91.503 98.4168 92.2674Z" fill="#E6E6E6"/>
</g>
<g filter="url(#filter3_d_1_2)">
<path d="M83.3762 99.5479C81.6346 100.391 79.554 100.034 78.1875 98.6605C79.8712 100.353 82.75 99.1543 82.75 96.7611V30.2391C82.75 27.8457 79.8712 26.6471 78.1875 28.3395C79.554 26.9659 81.6346 26.61 83.3762 27.4518L98.4146 34.7214C99.9947 35.4853 101 37.092 101 38.8545V88.146C101 89.9086 99.9947 91.5146 98.4146 92.2789L83.3762 99.5479Z" fill="white"/>
</g>
<g style="mix-blend-mode:overlay" opacity="0.25">
<path style="mix-blend-mode:overlay" opacity="0.25" fill-rule="evenodd" clip-rule="evenodd" d="M79.7211 99.6878C80.8708 100.138 82.1819 100.11 83.3424 99.5479L98.372 92.2789C99.9514 91.5153 100.955 89.9086 100.955 88.146V38.8546C100.955 37.092 99.9514 35.4855 98.372 34.7215L83.3424 27.4519C81.8194 26.7153 80.037 26.8957 78.7003 27.8725C78.5094 28.0121 78.3275 28.1678 78.1568 28.3395L49.3847 54.7251L36.8521 45.1624C35.6854 44.2723 34.0536 44.3452 32.9701 45.3359L28.9504 49.0113C27.6251 50.2232 27.6236 52.3191 28.9472 53.533L39.8158 63.5L28.9472 73.4671C27.6236 74.681 27.6251 76.7769 28.9504 77.9888L32.9701 81.6642C34.0536 82.6549 35.6854 82.7275 36.8521 81.8377L49.3847 72.2751L78.1568 98.6605C78.612 99.1184 79.1464 99.4631 79.7211 99.6878ZM82.7166 46.8423L60.8851 63.5L82.7166 80.1577V46.8423Z" fill="url(#paint1_linear_1_2)"/>
</g>
</g>
</g>
</g>
</g>
<defs>
<filter id="filter0_i_1_2" x="12" y="12" width="104" height="104" filterUnits="userSpaceOnUse" color-interpolation-filters="sRGB">
<feFlood flood-opacity="0" result="BackgroundImageFix"/>
<feBlend mode="normal" in="SourceGraphic" in2="BackgroundImageFix" result="shape"/>
<feColorMatrix in="SourceAlpha" type="matrix" values="0 0 0 0 0 0 0 0 0 0 0 0 0 0 0 0 0 0 127 0" result="hardAlpha"/>
<feOffset dy="-4"/>
<feComposite in2="hardAlpha" operator="arithmetic" k2="-1" k3="1"/>
<feColorMatrix type="matrix" values="0 0 0 0 0.0666667 0 0 0 0 0.0666667 0 0 0 0 0.0666667 0 0 0 0.2 0"/>
<feBlend mode="normal" in2="shape" result="effect1_innerShadow_1_2"/>
</filter>
<filter id="filter1_d_1_2" x="21.75" y="22.8333" width="85.5" height="85.5" filterUnits="userSpaceOnUse" color-interpolation-filters="sRGB">
<feFlood flood-opacity="0" result="BackgroundImageFix"/>
<feColorMatrix in="SourceAlpha" type="matrix" values="0 0 0 0 0 0 0 0 0 0 0 0 0 0 0 0 0 0 127 0" result="hardAlpha"/>
<feOffset dy="2.08333"/>
<feGaussianBlur stdDeviation="3.125"/>
<feColorMatrix type="matrix" values="0 0 0 0 0 0 0 0 0 0 0 0 0 0 0 0 0 0 0.15 0"/>
<feBlend mode="normal" in2="BackgroundImageFix" result="effect1_dropShadow_1_2"/>
<feBlend mode="normal" in="SourceGraphic" in2="effect1_dropShadow_1_2" result="shape"/>
</filter>
<filter id="filter2_d_1_2" x="19.6221" y="36.2075" width="89.7112" height="72.1257" filterUnits="userSpaceOnUse" color-interpolation-filters="sRGB">
<feFlood flood-opacity="0" result="BackgroundImageFix"/>
<feColorMatrix in="SourceAlpha" type="matrix" values="0 0 0 0 0 0 0 0 0 0 0 0 0 0 0 0 0 0 127 0" result="hardAlpha"/>
<feOffset/>
<feGaussianBlur stdDeviation="4.16667"/>
<feColorMatrix type="matrix" values="0 0 0 0 0 0 0 0 0 0 0 0 0 0 0 0 0 0 0.25 0"/>
<feBlend mode="overlay" in2="BackgroundImageFix" result="effect1_dropShadow_1_2"/>
<feBlend mode="normal" in="SourceGraphic" in2="effect1_dropShadow_1_2" result="shape"/>
</filter>
<filter id="filter3_d_1_2" x="69.8542" y="18.6666" width="39.4792" height="89.6671" filterUnits="userSpaceOnUse" color-interpolation-filters="sRGB">
<feFlood flood-opacity="0" result="BackgroundImageFix"/>
<feColorMatrix in="SourceAlpha" type="matrix" values="0 0 0 0 0 0 0 0 0 0 0 0 0 0 0 0 0 0 127 0" result="hardAlpha"/>
<feOffset/>
<feGaussianBlur stdDeviation="4.16667"/>
<feColorMatrix type="matrix" values="0 0 0 0 0 0 0 0 0 0 0 0 0 0 0 0 0 0 0.25 0"/>
<feBlend mode="overlay" in2="BackgroundImageFix" result="effect1_dropShadow_1_2"/>
<feBlend mode="normal" in="SourceGraphic" in2="effect1_dropShadow_1_2" result="shape"/>
</filter>
<linearGradient id="paint0_linear_1_2" x1="64" y1="12" x2="64" y2="116" gradientUnits="userSpaceOnUse">
<stop stop-color="#F0F0F2" stop-opacity="0"/>
<stop offset="1" stop-color="#2D2D2D" stop-opacity="0.2"/>
<stop offset="1" stop-color="#F0F0F2" stop-opacity="0.2"/>
</linearGradient>
<linearGradient id="paint1_linear_1_2" x1="64.4555" y1="27" x2="64.4555" y2="100.001" gradientUnits="userSpaceOnUse">
<stop stop-color="white"/>
<stop offset="1" stop-color="white" stop-opacity="0"/>
</linearGradient>
<clipPath id="clip0_1_2">
<rect width="73" height="73" fill="white" transform="translate(28 27)"/>
</clipPath>
</defs>
</svg>
