<svg width="128" height="128" viewBox="0 0 128 128" fill="none" xmlns="http://www.w3.org/2000/svg">
<g filter="url(#filter0_i_4_19)">
<rect x="12" y="12" width="104" height="104" rx="24" fill="url(#paint0_linear_4_19)"/>
<rect x="12" y="12" width="104" height="104" rx="24" fill="url(#paint1_linear_4_19)"/>
</g>
<g clip-path="url(#clip0_4_19)">
<path fill-rule="evenodd" clip-rule="evenodd" d="M12.058 62.9552L30.9408 70.6573C33.3026 69.3013 36.0402 68.5257 38.959 68.5257C39.4716 68.5257 39.9783 68.55 40.4786 68.5967L54.1245 49.171V49.1574C54.1245 43.0998 56.5801 37.6155 60.5502 33.6454C64.5203 29.6753 70.0047 27.2196 76.0622 27.2196C82.1198 27.2196 87.6041 29.6753 91.5742 33.6454C95.5444 37.6155 98 43.1 98 49.1574C98 55.215 95.5444 60.6993 91.5742 64.6694C87.6041 68.6395 82.1198 71.0951 76.0622 71.0951C75.9851 71.0951 75.9082 71.0944 75.8313 71.0936L54.997 86.3543C54.6013 90.1281 52.9041 93.5148 50.3623 96.0567C47.4438 98.9751 43.412 100.78 38.9587 100.78C34.5054 100.78 30.4739 98.9751 27.5551 96.0567C25.4248 93.9263 23.8876 91.2029 23.2127 88.1551L11.9997 83.6698L12.0578 62.9552H12.058ZM36.6561 72.9886L41.6527 75.0265C51.9782 79.2381 47.3804 95.7852 34.6927 92.7468L28.4736 90.2591C29.0278 91.2934 29.73 92.2362 30.5528 93.0589C32.7037 95.2099 35.6759 96.5404 38.9587 96.5404C42.2415 96.5404 45.2137 95.2099 47.3646 93.0589C49.5156 90.908 50.8461 87.9358 50.8461 84.653C50.8461 81.3702 49.5156 78.3981 47.3646 76.2471C45.2137 74.0962 42.2418 72.7657 38.9587 72.7657C38.1708 72.7657 37.4009 72.8426 36.6561 72.9888V72.9886ZM75.9833 38.2747C82.0569 38.2747 86.9803 43.1983 86.9803 49.2717C86.9803 55.3452 82.0566 60.2687 75.9833 60.2687C69.9097 60.2687 64.9863 55.3452 64.9863 49.2717C64.9863 43.1981 69.9097 38.2747 75.9833 38.2747ZM86.2282 38.9914C83.6268 36.39 80.0323 34.7808 76.062 34.7808C72.0916 34.7808 68.4974 36.39 65.8957 38.9914C63.2943 41.5928 61.6852 45.1873 61.6852 49.1576C61.6852 53.128 63.2943 56.7222 65.8957 59.3239C68.4972 61.9253 72.0916 63.5344 76.062 63.5344C80.0323 63.5344 83.6268 61.9253 86.2282 59.3239C88.8296 56.7224 90.4388 53.128 90.4388 49.1576C90.4388 45.1873 88.8296 41.5928 86.2282 38.9914Z" fill="white"/>
</g>
<defs>
<filter id="filter0_i_4_19" x="12" y="12" width="104" height="104" filterUnits="userSpaceOnUse" color-interpolation-filters="sRGB">
<feFlood flood-opacity="0" result="BackgroundImageFix"/>
<feBlend mode="normal" in="SourceGraphic" in2="BackgroundImageFix" result="shape"/>
<feColorMatrix in="SourceAlpha" type="matrix" values="0 0 0 0 0 0 0 0 0 0 0 0 0 0 0 0 0 0 127 0" result="hardAlpha"/>
<feOffset dy="-4"/>
<feComposite in2="hardAlpha" operator="arithmetic" k2="-1" k3="1"/>
<feColorMatrix type="matrix" values="0 0 0 0 0 0 0 0 0 0 0 0 0 0 0 0 0 0 0.1 0"/>
<feBlend mode="normal" in2="shape" result="effect1_innerShadow_4_19"/>
</filter>
<linearGradient id="paint0_linear_4_19" x1="64" y1="12" x2="64" y2="116" gradientUnits="userSpaceOnUse">
<stop stop-color="#011045"/>
<stop offset="1" stop-color="#567BFE"/>
</linearGradient>
<linearGradient id="paint1_linear_4_19" x1="64" y1="12" x2="64" y2="116" gradientUnits="userSpaceOnUse">
<stop stop-opacity="0.19"/>
<stop stop-opacity="0.54"/>
<stop offset="0.0001" stop-opacity="0"/>
<stop offset="1" stop-color="#858FFF" stop-opacity="0.2"/>
</linearGradient>
<clipPath id="clip0_4_19">
<rect width="86" height="86" fill="white" transform="translate(12 21)"/>
</clipPath>
</defs>
</svg>
