<svg width="128" height="128" viewBox="0 0 128 128" fill="none" xmlns="http://www.w3.org/2000/svg">
<g filter="url(#filter0_i_6_856)">
<rect x="12" y="11" width="104" height="104" rx="24" fill="white"/>
<rect x="12" y="11" width="104" height="104" rx="24" fill="url(#paint0_linear_6_856)"/>
</g>
<path fill-rule="evenodd" clip-rule="evenodd" d="M96.1262 41.6731L98.0106 36.9522C98.0106 36.9522 95.6122 34.3295 92.6999 31.357C89.7876 28.3846 83.6204 30.1331 83.6204 30.1331L76.5967 22H64.2623H51.9278L44.9041 30.1331C44.9041 30.1331 38.7369 28.3846 35.8246 31.357C32.9123 34.3295 30.5139 36.9522 30.5139 36.9522L32.3984 41.6731L30 48.667C30 48.667 37.0537 75.9356 37.8803 79.2656C39.5078 85.8224 40.6213 88.3577 45.2467 91.6798C49.8721 95.0019 58.2664 100.772 59.6369 101.646C61.0073 102.52 62.7205 104.01 64.2623 104.01C65.8041 104.01 67.5172 102.52 68.8877 101.646C70.2582 100.772 78.6524 95.0019 83.2778 91.6798C87.9032 88.3577 89.0167 85.8224 90.6442 79.2656C91.4706 75.9356 98.5245 48.667 98.5245 48.667L96.1262 41.6731Z" fill="url(#paint1_linear_6_856)"/>
<path fill-rule="evenodd" clip-rule="evenodd" d="M64.2623 73.036C64.7318 73.036 67.7404 74.12 70.1547 75.395C72.5688 76.6702 74.3184 77.5719 74.8777 77.9291C75.4369 78.2865 75.0958 78.9602 74.5865 79.3277C74.077 79.6953 67.2313 85.1058 66.5669 85.7038C65.9024 86.3019 64.9261 87.2896 64.2623 87.2896C63.5984 87.2896 62.622 86.3019 61.9576 85.7038C61.2931 85.1058 54.4475 79.6953 53.938 79.3277C53.4285 78.9602 53.0876 78.2865 53.6468 77.9291C54.2061 77.5719 55.9557 76.6702 58.37 75.395C60.784 74.12 63.7927 73.036 64.2623 73.036ZM64.299 34.5C64.5296 34.5065 65.8286 34.5709 67.6885 35.2037C69.7443 35.9031 71.9713 36.7774 72.9992 36.7774C74.027 36.7774 81.6504 35.2912 81.6504 35.2912C81.6504 35.2912 90.6847 46.4378 90.6847 48.8201C90.6847 51.2024 89.5482 51.8311 88.4055 53.0696C87.2629 54.308 82.2724 59.7168 81.6315 60.4113C80.9907 61.106 79.6565 62.1591 80.4413 64.0546C81.2261 65.9502 82.3838 68.3622 81.0964 70.8087C79.8088 73.2552 77.6032 74.8881 76.1898 74.6181C74.7765 74.348 71.4574 72.5776 70.2368 71.769C69.0162 70.9603 65.1476 67.7039 65.1476 66.4579C65.1476 65.2121 69.1465 62.9751 69.8852 62.4668C70.6243 61.9587 73.994 59.9915 74.063 59.2194C74.1319 58.4471 74.1057 58.2206 73.1112 56.3127C72.1167 54.4046 70.3259 51.8584 70.6239 50.1643C70.922 48.4704 73.8103 47.5895 75.8715 46.795C77.9324 46.0006 81.9008 44.5003 82.3965 44.267C82.8924 44.0336 82.7643 43.8114 81.2624 43.6661C79.7608 43.5208 75.4993 42.9434 73.578 43.49C71.6568 44.0366 68.3744 44.8681 68.1086 45.3091C67.8427 45.7501 67.6082 45.7649 67.8812 47.2861C68.1541 48.8073 69.5599 56.1065 69.6963 57.403C69.8328 58.6995 70.0997 59.5567 68.7301 59.8763C67.3603 60.1959 65.0546 60.7509 64.2623 60.7509C63.47 60.7509 61.1641 60.1959 59.7945 59.8763C58.4247 59.5567 58.6916 58.6995 58.8281 57.403C58.9647 56.1065 60.3703 48.8073 60.6433 47.2861C60.9162 45.7649 60.6817 45.7501 60.416 45.3091C60.1501 44.8681 56.8676 44.0366 54.9464 43.49C53.0251 42.9434 48.7638 43.5208 47.262 43.6661C45.7603 43.8114 45.6322 44.0336 46.128 44.267C46.6237 44.5003 50.5922 46.0006 52.653 46.795C54.7141 47.5895 57.6026 48.4704 57.9006 50.1643C58.1987 51.8584 56.4077 54.4046 55.4134 56.3127C54.4189 58.2206 54.3925 58.4471 54.4616 59.2194C54.5304 59.9915 57.9003 61.9587 58.6392 62.4668C59.378 62.9751 63.3768 65.2121 63.3768 66.4579C63.3768 67.7039 59.5084 70.9603 58.2878 71.769C57.0672 72.5776 53.7481 74.348 52.3347 74.6181C50.9214 74.8881 48.7158 73.2552 47.4282 70.8087C46.1408 68.3622 47.2985 65.9502 48.0831 64.0546C48.8679 62.1591 47.5339 61.106 46.8929 60.4113C46.2522 59.7168 41.2615 54.308 40.1189 53.0696C38.9762 51.8311 37.8399 51.2024 37.8399 48.8201C37.8399 46.4378 46.8742 35.2912 46.8742 35.2912C46.8742 35.2912 54.4975 36.7774 55.5254 36.7774C56.5533 36.7774 58.7803 35.9031 60.8361 35.2037C62.696 34.5709 63.995 34.5065 64.2256 34.5H64.299Z" fill="white"/>
<path d="M83.6205 30.1331L76.5967 22H64.2623H51.9279L44.9041 30.1331C44.9041 30.1331 38.7369 28.3846 35.8246 31.357C35.8246 31.357 44.0476 30.5994 46.8742 35.2911C46.8742 35.2911 54.4975 36.7773 55.5254 36.7773C56.5533 36.7773 58.7803 35.9031 60.8361 35.2037C62.8918 34.5043 64.2623 34.4992 64.2623 34.4992C64.2623 34.4992 65.6328 34.5043 67.6885 35.2037C69.7443 35.9031 71.9713 36.7773 72.9992 36.7773C74.027 36.7773 81.6504 35.2911 81.6504 35.2911C84.477 30.5994 92.7 31.357 92.7 31.357C89.7877 28.3846 83.6205 30.1331 83.6205 30.1331Z" fill="url(#paint2_linear_6_856)"/>
<defs>
<filter id="filter0_i_6_856" x="12" y="11" width="104" height="104" filterUnits="userSpaceOnUse" color-interpolation-filters="sRGB">
<feFlood flood-opacity="0" result="BackgroundImageFix"/>
<feBlend mode="normal" in="SourceGraphic" in2="BackgroundImageFix" result="shape"/>
<feColorMatrix in="SourceAlpha" type="matrix" values="0 0 0 0 0 0 0 0 0 0 0 0 0 0 0 0 0 0 127 0" result="hardAlpha"/>
<feOffset dy="-4"/>
<feComposite in2="hardAlpha" operator="arithmetic" k2="-1" k3="1"/>
<feColorMatrix type="matrix" values="0 0 0 0 0.0666667 0 0 0 0 0.0666667 0 0 0 0 0.0666667 0 0 0 0.2 0"/>
<feBlend mode="normal" in2="shape" result="effect1_innerShadow_6_856"/>
</filter>
<linearGradient id="paint0_linear_6_856" x1="64" y1="11" x2="64" y2="115" gradientUnits="userSpaceOnUse">
<stop stop-color="#A3278F" stop-opacity="0.21"/>
<stop offset="1" stop-color="#2D2D2D" stop-opacity="0.2"/>
<stop offset="1" stop-color="#4F30AB" stop-opacity="0.2"/>
</linearGradient>
<linearGradient id="paint1_linear_6_856" x1="30" y1="63.5834" x2="98.5245" y2="63.5834" gradientUnits="userSpaceOnUse">
<stop stop-color="#FF5500"/>
<stop offset="0.409877" stop-color="#FF5500"/>
<stop offset="0.581981" stop-color="#FF2000"/>
<stop offset="1" stop-color="#FF2000"/>
</linearGradient>
<linearGradient id="paint2_linear_6_856" x1="37.0466" y1="29.4929" x2="92.7" y2="29.4929" gradientUnits="userSpaceOnUse">
<stop stop-color="#FF452A"/>
<stop offset="1" stop-color="#FF2000"/>
</linearGradient>
</defs>
</svg>
