<svg width="128" height="128" viewBox="0 0 128 128" fill="none" xmlns="http://www.w3.org/2000/svg">
<g filter="url(#filter0_i_6_126)">
<rect x="12" y="11" width="104" height="104" rx="24" fill="url(#paint0_linear_6_126)"/>
<rect x="12" y="11" width="104" height="104" rx="24" fill="url(#paint1_linear_6_126)"/>
</g>
<path d="M46.9097 69.1715L49.2755 75.7306L52.8305 80.527L61.1769 82.1189L65.1698 82.4585L71.9864 80.7556L74.923 77.9407L46.9097 69.1715V69.1715Z" fill="#09204D"/>
<path d="M82.2322 59.4965L81.3966 56.7241L79.0072 52.2153L76.2739 49.3345L73.3723 47.263L70.853 46.274L67.83 45.1987L62.8527 44.882L59.7141 45.4484L57.1531 46.2356L52.6091 48.895L49.7691 52.0633L47.1503 56.3164L46.1202 59.9358L45.9277 65.4273L46.9097 69.1715L49.0758 73.4344L50.6036 75.4933L52.7161 77.43L55.3545 79.2148L58.608 80.6298L64.0527 81.2689L66.8956 81.3481L71.1033 80.163L74.8642 78.0989L77.2839 76.0347L79.1602 73.7962L81.8128 68.6037L82.3984 65.0517L82.2322 59.4965V59.4965Z" fill="#09204D"/>
<path d="M62.9438 47.3773L60.7147 49.5889L64.3508 51.0628L67.0556 47.7086L62.9438 47.3773V47.3773Z" fill="#0E56D7"/>
<path d="M64.3508 51.0628L71.3903 50.8492L67.0556 47.7086L64.3508 51.0628Z" fill="#1053D1"/>
<path d="M70.8674 47.685L67.0556 47.7086L71.3903 50.8492L75.3988 50.5875L70.8674 47.685V47.685Z" fill="#0B4FBF"/>
<path d="M75.3987 50.5875L73.12 47.4453L76.2739 49.3345L75.3987 50.5875V50.5875Z" fill="#0B48B0"/>
<path d="M78.4164 52.5117L75.3987 50.5875L76.2739 49.3345L78.4164 52.5117Z" fill="#0C45A7"/>
<path d="M75.3987 50.5875L74.8939 52.7402L77.6539 53.8433L75.3987 50.5875Z" fill="#0F46AF"/>
<path d="M75.3987 50.5875L78.4164 52.5117L77.6539 53.8433L75.3987 50.5875Z" fill="#0C47AD"/>
<path d="M71.3903 50.8492L75.3988 50.5875L74.8939 52.7402L71.3903 50.8492V50.8492Z" fill="#0E4FC3"/>
<path d="M71.3903 50.8492L68.2233 53.716L72.2994 55.7121L71.3903 50.8492V50.8492Z" fill="#174DCA"/>
<path d="M64.3508 51.0628L71.3903 50.8492L68.2233 53.716L64.3508 51.0628V51.0628Z" fill="#1650D4"/>
<path d="M74.8939 52.7402L76.8108 56.4575L77.6539 53.8433L74.8939 52.7402V52.7402Z" fill="#1246B2"/>
<path d="M76.8108 56.4575L77.6539 53.8433L79.6622 58.6197L76.8108 56.4575Z" fill="#133EA1"/>
<path d="M77.6539 53.8433L80.7147 56.0848L79.6622 58.6197L77.6539 53.8433V53.8433Z" fill="#103D98"/>
<path d="M78.4164 52.5117L79.0072 52.2153L80.7147 56.0849L78.4164 52.5117V52.5117Z" fill="#0B3785"/>
<path d="M80.7147 56.0849L81.3966 56.7241L79.0072 52.2153L80.7147 56.0849V56.0849Z" fill="#0B3685"/>
<path d="M80.7147 56.0847L78.4164 52.5117L77.6539 53.8438L80.7147 56.0847ZM76.2739 49.3347L78.4164 52.5119L79.0072 52.215L76.2739 49.3347Z" fill="#0C3B91"/>
<path d="M82.0786 61.6628L81.3966 56.7241L82.2322 59.4966L82.0675 61.6628H82.0786V61.6628Z" fill="#0B3279"/>
<path d="M80.7147 56.0848L82.0786 61.6628L81.3966 56.7241L80.7147 56.0848V56.0848Z" fill="#0F388D"/>
<path d="M79.6622 58.6197L82.0786 61.6628L80.7147 56.0848L79.6622 58.6197V58.6197Z" fill="#0D3481"/>
<path d="M82.0675 61.6628L82.2322 59.4966L82.3984 65.0517L82.0786 61.6628H82.0675V61.6628Z" fill="#0B2E71"/>
<path d="M81.6736 66.053L82.3984 65.0517L82.0786 61.6628L81.6736 66.053Z" fill="#0E2F77"/>
<path d="M81.8128 68.6037L81.2333 68.8829L82.3984 65.0517L81.8128 68.6037Z" fill="#0E2969"/>
<path d="M81.2333 68.8829L82.3984 65.0517L81.6736 66.0529L81.2333 68.8829V68.8829Z" fill="#0C2A69"/>
<path d="M81.6736 66.053L82.0786 61.6628L80.8372 63.1272L81.6736 66.053Z" fill="#123180"/>
<path d="M81.2333 68.883L81.6736 66.053L79.2792 70.0769L81.2333 68.883V68.883Z" fill="#112B70"/>
<path d="M79.6622 58.6197L82.0786 61.6628L80.8372 63.1272L79.6622 58.6197V58.6197Z" fill="#12378C"/>
<path d="M81.6736 66.053L80.8372 63.1272L79.5748 66.7309L81.6736 66.053Z" fill="#122E7B"/>
<path d="M79.1602 73.7962L81.2333 68.8829L79.2938 72.4647L79.1602 73.7962Z" fill="#11296C"/>
<path d="M79.2938 72.4647L81.2333 68.8829L79.2792 70.0768L79.2938 72.4647V72.4647Z" fill="#142A72"/>
<path d="M81.2333 68.883L79.1602 73.7969L81.8125 68.6038L81.2333 68.883ZM77.2839 76.0347L79.1602 73.7969L79.2937 72.4653L77.2839 76.0347ZM74.8642 78.0989L77.2839 76.0347L74.7267 77.2108L74.8642 78.0989Z" fill="#112768"/>
<path d="M60.742 79.5367L58.2973 80.1347L58.3719 78.4286L60.742 79.5367Z" fill="#1C226A"/>
<path d="M47.1503 56.3164L47.8242 56.0667L46.1201 59.9358L47.1503 56.3164V56.3164Z" fill="#182B7A"/>
<path d="M46.1201 59.9358L47.4103 59.6958L47.8242 56.0667L46.1201 59.9358Z" fill="#1F308D"/>
<path d="M46.1972 64.5825L46.1201 59.9358L47.4103 59.6958L46.1972 64.5825Z" fill="#1E2B7F"/>
<path d="M74.8939 52.7402L72.2994 55.7121L76.8108 56.4575L74.8939 52.7402ZM52.2533 49.6919L55.5658 47.4263L52.6102 48.895L52.2533 49.6919Z" fill="#1346B5"/>
<path d="M52.6091 48.895L57.1531 46.2356L55.5647 47.4261L52.6091 48.895Z" fill="#1244AC"/>
<path d="M55.5647 47.4261L59.7141 45.4484L57.1531 46.2356L55.5647 47.4261Z" fill="#0E4AB6"/>
<path d="M71.3906 50.8492L72.2997 55.712L74.8942 52.7401L71.3906 50.8492ZM58.0922 47.1958L61.9575 45.65L59.7144 45.4484L58.0922 47.1958Z" fill="#0E4BBA"/>
<path d="M62.8527 44.882L59.7141 45.4484L61.9572 45.65L62.8527 44.882Z" fill="#0A4EBC"/>
<path d="M65.8211 45.6115L61.9572 45.65L62.8527 44.882" fill="#0C54CC"/>
<path d="M73.12 47.4453L70.8673 47.685L75.3986 50.5875L73.12 47.4453ZM65.8211 45.6115L70.8523 46.274L67.8294 45.1987L65.8211 45.6115Z" fill="#0B4BB4"/>
<path d="M73.12 47.4453L70.853 46.274L73.3723 47.263L73.12 47.4453Z" fill="#0C3889"/>
<path d="M46.9097 69.1719L48.3972 70.3959L46.1973 64.5834L46.9097 69.1719ZM67.44 80.732L68.7477 77.6539L63.982 78.9342L67.44 80.732ZM68.7477 77.6539L72.732 78.7594L72.9737 75.6787L68.7477 77.6539Z" fill="#202575"/>
<path d="M74.7267 77.2108L72.9733 75.678L77.2098 72.8627L74.7267 77.2108Z" fill="#1B2773"/>
<path d="M77.21 72.8627L74.7267 77.2108L77.2839 76.0347L79.2937 72.4647L77.21 72.8627V72.8627Z" fill="#15276D"/>
<path d="M73.3723 47.2629L73.12 47.4453L76.2739 49.3345L73.3723 47.2629ZM70.8673 47.6848L73.12 47.4451L70.853 46.2733L70.8673 47.6848Z" fill="#0C409D"/>
<path d="M62.8527 44.882L65.8214 45.6115L67.8303 45.1987L62.8527 44.882ZM70.8527 46.274L65.8214 45.6115L70.8683 47.685L70.8527 46.274Z" fill="#0B4CB7"/>
<path d="M65.8211 45.6116L67.0556 47.7086L70.8673 47.685L65.8211 45.6116V45.6116Z" fill="#0B55CE"/>
<path d="M65.8211 45.6116L67.0556 47.7086L62.9438 47.3775L65.8211 45.6116Z" fill="#0A52C5"/>
<path d="M61.9572 45.65L62.9437 47.3775L65.8211 45.6116L61.9572 45.65V45.65Z" fill="#0951C4"/>
<path d="M58.0919 47.1958L61.9572 45.65L62.9437 47.3775L58.0919 47.1958Z" fill="#0B50C4"/>
<path d="M55.5647 47.4261L58.0919 47.1958L59.7141 45.4484L55.5647 47.4261ZM58.0919 47.1958L60.7147 49.5889L62.9438 47.3773L58.0919 47.1958Z" fill="#0F4DBF"/>
<path d="M58.0919 47.1958L53.8222 51.1992L55.5647 47.4261L58.0919 47.1958Z" fill="#1546B6"/>
<path d="M53.8222 51.1992L56.5467 51.6524L58.0919 47.1958L53.8222 51.1992V51.1992Z" fill="#1549BD"/>
<path d="M56.5467 51.6524L58.0919 47.1958L60.7148 49.5889L56.5467 51.6524V51.6524Z" fill="#144BC3"/>
<path d="M49.7691 52.0633L49.935 53.6738L52.2528 49.6919L49.7691 52.0633V52.0633Z" fill="#173794"/>
<path d="M47.8242 56.0667L49.7691 52.0633L49.935 53.6738L47.8242 56.0667V56.0667Z" fill="#192F84"/>
<path d="M49.935 53.6738L52.2528 49.6919L53.8222 51.1992L49.935 53.6738V53.6738Z" fill="#1A389B"/>
<path d="M49.7947 57.126L49.935 53.6738L47.8242 56.0667L49.7947 57.126Z" fill="#1D3089"/>
<path d="M49.7947 57.126L49.935 53.6738L52.6741 55.8974L49.7947 57.126Z" fill="#1E389F"/>
<path d="M52.6741 55.8973L53.8222 51.1992L49.935 53.6738L52.6741 55.8973V55.8973Z" fill="#1C40AF"/>
<path d="M52.6741 55.8973L53.8222 51.1992L56.5467 51.6523L52.6741 55.8973V55.8973Z" fill="#1E41B7"/>
<path d="M47.4103 59.6958L47.8242 56.0667L49.7947 57.1259L47.4103 59.6958Z" fill="#192C7D"/>
<path d="M67.44 80.7317L71.1033 80.163L72.7314 78.7585L67.44 80.7317ZM45.9277 65.4274L46.1973 64.5825L46.1202 59.9358L45.9277 65.4274ZM47.4103 59.6958L46.1973 64.5825L48.3972 70.395L47.3236 63.6606L47.4103 59.6958Z" fill="#162467"/>
<path d="M48.397 70.3958L50.2119 70.6502L48.9411 67.6836L48.397 70.3958Z" fill="#1A236A"/>
<path d="M74.7267 77.2107L72.7314 78.7584L71.1033 80.1629L74.8642 78.0989L74.7267 77.2107ZM64.0527 81.2689L66.8956 81.3481L71.1033 80.1629L67.44 80.7317L64.0527 81.2689ZM50.0905 73.7689L51.9978 74.1357L50.2119 70.6514L50.0905 73.7689Z" fill="#132668"/>
<path d="M58.3719 78.4286L55.1425 75.943L53.8003 77.2335L58.2969 80.1347L58.3719 78.4286ZM46.9097 69.1719L49.0758 73.4347L48.3972 70.3959L46.9097 69.1719ZM45.9277 65.4277L46.9097 69.1719L46.1973 64.5828L45.9277 65.4277ZM63.9819 78.9336L58.3725 78.4289L60.7427 79.5372L58.2969 80.1347L55.3541 79.2149L58.6075 80.6299L64.0522 81.2689L67.4395 80.7317L63.9819 78.9336ZM50.2119 70.6505L48.3972 70.3959L50.0905 73.7686L50.2119 70.6505ZM47.3236 63.6609L48.3972 70.3953L48.9411 67.6831L47.3236 63.6609ZM51.9978 74.1352L50.0905 73.7683L49.0758 73.4344L50.6036 75.4933L52.7161 77.43L55.3545 79.2149L53.8003 77.2335L51.9978 74.1352Z" fill="#1B2268"/>
<path d="M47.4103 59.6958L49.9712 63.657L49.7947 57.1259L47.4103 59.6958V59.6958Z" fill="#212A81"/>
<path d="M47.3236 63.6608L48.9411 67.6836L49.9713 63.657L47.3236 63.6608V63.6608Z" fill="#21267A"/>
<path d="M48.9411 67.6836L49.9713 63.657L51.2516 66.8386L48.9411 67.6836V67.6836Z" fill="#262781"/>
<path d="M50.2119 70.6502L55.1219 73.6927L51.2516 66.8386L50.2119 70.6502Z" fill="#272379"/>
<path d="M49.0758 73.4344L50.0905 73.7683L48.3972 70.3956L49.0758 73.4344ZM59.9216 75.1844L58.3719 78.428L63.9812 78.9327L59.9216 75.1844ZM50.2119 70.6495L51.9978 74.1339L53.8003 77.2322L55.1425 75.9417L55.1219 73.6917L50.2119 70.6495Z" fill="#1E226D"/>
<path d="M72.9731 75.6778L72.7314 78.7584L74.7267 77.2108L72.9731 75.6778ZM64.3895 75.2358L63.9819 78.9333L68.7475 77.653L68.5778 73.4967L64.3895 75.2358Z" fill="#222475"/>
<path d="M47.3236 63.661L49.9711 63.657L47.4103 59.6958L47.3236 63.661ZM68.5781 73.4964L68.7478 77.6527L72.9733 75.6775L68.5781 73.4964Z" fill="#23277D"/>
<path d="M68.578 73.4964L71.2975 71.0339L72.9733 75.678L68.578 73.4964Z" fill="#1E2776"/>
<path d="M72.9733 75.678L75.0289 69.4524L71.2975 71.034L72.9733 75.678Z" fill="#222B86"/>
<path d="M77.2098 72.8627L72.9733 75.678L75.0289 69.4524L77.2098 72.8627V72.8627Z" fill="#192974"/>
<path d="M79.2792 70.0768L75.0289 69.4521L77.21 72.8626L79.2937 72.4646L79.2792 70.0768Z" fill="#172A75"/>
<path d="M79.5748 66.7309L75.0289 69.4522L79.2792 70.0769L81.6736 66.053L79.5748 66.7309Z" fill="#172D7D"/>
<path d="M47.8242 56.0667L49.7691 52.0633L47.1503 56.3164L47.8242 56.0667ZM77.8792 61.0219L79.5748 66.7309L80.8372 63.1272L77.8792 61.0219Z" fill="#18338A"/>
<path d="M80.8372 63.1272L79.6622 58.6197L77.8792 61.0217L80.8372 63.1272V63.1272Z" fill="#153791"/>
<path d="M75.0289 69.4524L79.5748 66.731L75.1689 64.7697L75.0289 69.4524V69.4524Z" fill="#1B318B"/>
<path d="M75.0289 69.4524L70.9091 65.2896L71.2975 71.0339L75.0289 69.4524V69.4524Z" fill="#242D8D"/>
<path d="M68.578 73.4964L65.415 70.6959L71.2975 71.0339L68.578 73.4964Z" fill="#2A2B8F"/>
<path d="M50.2119 70.6502L51.2516 66.8387L48.9411 67.6834L50.2119 70.6502ZM65.415 70.6959L64.3895 75.2358L68.5781 73.4964L65.415 70.6959Z" fill="#27267F"/>
<path d="M58.8672 71.6246L55.8223 70.0769L55.1219 73.6927L59.9216 75.185L64.3895 75.2358L58.8672 71.6246V71.6246Z" fill="#2D2381"/>
<path d="M64.3894 75.2358L65.415 70.6959L58.8672 71.6245L64.3894 75.2358Z" fill="#2F2485"/>
<path d="M49.9713 63.657L51.2847 59.4644L49.7947 57.1259L49.9713 63.657Z" fill="#233196"/>
<path d="M52.6741 55.8974L58.4386 54.217L55.3938 60.4372L52.6741 55.8974Z" fill="#293CB7"/>
<path d="M75.0289 69.4524L70.9091 65.2896L75.1689 64.7697L75.0289 69.4524V69.4524Z" fill="#25339C"/>
<path d="M79.5748 66.7309L77.8792 61.0217L75.1689 64.7697L79.5748 66.7309V66.7309Z" fill="#19348F"/>
<path d="M71.2975 71.0339L66.5861 66.4786L70.9091 65.2896L71.2975 71.0339V71.0339Z" fill="#2A309A"/>
<path d="M65.415 70.6959L71.2975 71.0339L66.5861 66.4786L65.415 70.6959Z" fill="#302B96"/>
<path d="M65.415 70.6959L62.1928 68.0723L66.5861 66.4786L65.415 70.6959Z" fill="#3630A7"/>
<path d="M52.2528 49.6919L52.6091 48.895L49.7691 52.0633L52.2528 49.6919ZM76.8108 56.4575L77.8792 61.0219L79.6622 58.6197L76.8108 56.4575Z" fill="#173DA2"/>
<path d="M52.6741 55.8973L55.3937 60.4372L51.2847 59.4644L52.6741 55.8973Z" fill="#2A36A8"/>
<path d="M51.2847 59.4644L55.3937 60.4372L52.615 64.8139L51.2847 59.4644Z" fill="#312E9F"/>
<path d="M58.4386 54.2171L60.7148 49.5889L56.5467 51.6524L58.4386 54.2171V54.2171Z" fill="#184DCD"/>
<path d="M49.9713 63.657L52.615 64.8139L51.2516 66.8386L49.9713 63.657V63.657Z" fill="#272986"/>
<path d="M52.615 64.8139L51.2516 66.8387L55.1219 73.6926L55.8223 70.0769L52.615 64.8139V64.8139Z" fill="#2C2584"/>
<path d="M55.8223 70.0768L56.2511 63.7094L52.615 64.8139L55.8223 70.0768Z" fill="#32268B"/>
<path d="M55.8223 70.0768L62.1928 68.0723L56.2511 63.7094L55.8223 70.0768V70.0768Z" fill="#372999"/>
<path d="M62.1928 68.0724L61.572 63.1492L56.2511 63.7094L62.1928 68.0724V68.0724Z" fill="#392DA5"/>
<path d="M61.572 63.1492L66.0653 61.4689L66.5861 66.4786L61.572 63.1492V63.1492Z" fill="#3338BC"/>
<path d="M58.8672 71.6246L65.415 70.696L62.1928 68.0724L58.8672 71.6246V71.6246Z" fill="#362896"/>
<path d="M58.8672 71.6246L55.8223 70.0769L62.1928 68.0724L58.8672 71.6246V71.6246Z" fill="#35268F"/>
<path d="M58.4386 54.2171L62.3406 54.6299L60.7148 49.5889L58.4386 54.2171V54.2171Z" fill="#2648D3"/>
<path d="M64.3508 51.0628L60.7148 49.5889L62.3406 54.6299L64.3508 51.0628Z" fill="#1057DC"/>
<path d="M64.3508 51.0628L68.2233 53.7159L62.3406 54.6298L64.3508 51.0628V51.0628Z" fill="#1653DA"/>
<path d="M62.3406 54.6298L68.1109 57.6897L66.0653 61.4689L62.3406 54.6298V54.6298Z" fill="#2B46D5"/>
<path d="M68.1109 57.6897L68.2233 53.7159L62.3406 54.6298L68.1109 57.6897Z" fill="#244AD7"/>
<path d="M68.1109 57.6897L68.2233 53.7159L72.2994 55.712L68.1109 57.6897V57.6897Z" fill="#2547CF"/>
<path d="M62.3406 54.6298L66.0653 61.4689L59.5323 58.1967L62.3406 54.6298Z" fill="#333CC5"/>
<path d="M61.572 63.1492L66.0653 61.4689L59.5323 58.1967L61.572 63.1492Z" fill="#3833B6"/>
<path d="M66.0653 61.4689L71.8272 60.4166L68.1109 57.6897L66.0653 61.4689Z" fill="#2A41C6"/>
<path d="M72.2994 55.712L71.8272 60.4166L68.1109 57.6897L72.2994 55.712Z" fill="#2045C1"/>
<path d="M72.2994 55.712L75.0191 59.4055L71.8272 60.4166L72.2994 55.712Z" fill="#1B43B7"/>
<path d="M76.8108 56.4575L72.2994 55.712L75.0191 59.4055L76.8108 56.4575V56.4575Z" fill="#1742AF"/>
<path d="M53.8222 51.1992L55.5647 47.4261L52.2522 49.6917L53.8222 51.1992ZM76.8108 56.4575L75.0191 59.4062L77.8792 61.0226L76.8108 56.4575Z" fill="#1740A9"/>
<path d="M75.1689 64.7697L77.8792 61.0217L75.0191 59.4055L75.1689 64.7697Z" fill="#1B3CA4"/>
<path d="M75.1689 64.7697L75.0191 59.4055L71.8272 60.4165L75.1689 64.7697Z" fill="#1F3DAD"/>
<path d="M52.6742 55.8973L58.4386 54.217L56.5469 51.6523L52.6742 55.8973ZM66.0648 61.4689L70.9086 65.2895L71.8267 60.4166L66.0648 61.4689Z" fill="#2543C3"/>
<path d="M66.5861 66.4786L70.9091 65.2896L66.0653 61.4689L66.5861 66.4786Z" fill="#2E37B2"/>
<path d="M58.4386 54.217L59.5323 58.1967L62.3406 54.6299L58.4386 54.217V54.217Z" fill="#2D40C7"/>
<path d="M58.4386 54.217L55.3938 60.4372L59.5323 58.1967L58.4386 54.217Z" fill="#3537B8"/>
<path d="M59.5323 58.1967L56.2511 63.7094L61.572 63.1492L59.5323 58.1967Z" fill="#3931B0"/>
<path d="M61.572 63.1492L62.1928 68.0724L66.5861 66.4786L61.572 63.1492ZM56.2511 63.7094L59.5323 58.1969L55.3938 60.4375L56.2511 63.7094Z" fill="#3735B8"/>
<path d="M52.615 64.8139L55.3938 60.4372L56.2511 63.7094L52.615 64.8139V64.8139Z" fill="#342892"/>
<path d="M55.3545 79.2148L58.2973 80.1347L53.8003 77.2334L55.3545 79.2148ZM55.1425 75.9429L58.3719 78.4286L59.9216 75.185L55.1219 73.6926L55.1425 75.9429ZM63.9819 78.9333L64.3895 75.2358L59.9216 75.185L63.9819 78.9333ZM68.7475 77.6529L67.4398 80.7311L72.7312 78.7578L68.7475 77.6529Z" fill="#232372"/>
<path d="M49.9713 63.657L51.2847 59.4644L52.615 64.8139L49.9713 63.657Z" fill="#2A2F96"/>
<path d="M51.2847 59.4644L52.6742 55.8973L49.7947 57.1259L51.2847 59.4644ZM71.8272 60.4166L70.9091 65.2895L75.1689 64.7697L71.8272 60.4166Z" fill="#2636A5"/>
<path d="M82.4803 65.0569V65.0483L82.3141 59.494V59.4878C82.3141 59.4858 82.3141 59.4839 82.3131 59.482C82.3122 59.4801 82.3122 59.477 82.3116 59.4747V59.473L81.4764 56.7014V56.6997L81.4747 56.6951C81.4747 56.6931 81.4731 56.6911 81.4722 56.6892L81.4711 56.6867L79.0816 52.178L79.0802 52.1758L79.0772 52.1711L79.0745 52.1672L79.0728 52.1648L79.0703 52.162L79.0686 52.1598L76.3337 49.2781L76.3325 49.277L76.3306 49.2751C76.3291 49.2736 76.3272 49.2723 76.3255 49.2709L76.3219 49.2678L73.4211 47.197H73.4197L73.417 47.1951C73.4151 47.194 73.413 47.1929 73.4109 47.192C73.4089 47.1908 73.4068 47.1898 73.4047 47.1889H73.4034L70.8858 46.2008H70.8819L67.8595 45.1258H67.8567L67.8509 45.1242L67.8456 45.1231H67.8372L62.8598 44.8064H62.8512C62.8485 44.8062 62.8458 44.8062 62.8431 44.8064H62.84L59.7014 45.3728H59.6947L59.6891 45.3744L57.1309 46.1608L57.1253 46.163C57.1231 46.1639 57.1208 46.1648 57.1187 46.1659L57.1155 46.1675H57.1144L52.5703 48.827H52.5694L52.5656 48.8295L52.562 48.8319L52.5591 48.8345L52.5562 48.8367L52.5531 48.8401L52.5506 48.8423L52.5495 48.8436L49.7106 52.0105L49.7095 52.012L49.7075 52.0144L49.7056 52.017L49.7031 52.0206L49.7019 52.0222L49.7009 52.0237L47.0803 56.2734L47.0791 56.2759L47.0766 56.2803L47.0744 56.2855C47.0744 56.2875 47.0728 56.2894 47.0722 56.2914L47.0712 56.2939L46.0411 59.9134V59.9253C46.0407 59.9273 46.0404 59.9293 46.0403 59.9314V59.933L45.8478 65.4245V65.4381C45.8481 65.4404 45.8485 65.4426 45.8491 65.4448V65.4505L46.8305 69.1923V69.1939L46.8314 69.1967C46.8323 69.1994 46.8334 69.202 46.8345 69.2045C46.8345 69.2058 46.8355 69.2072 46.8361 69.2084L49.0017 73.47L49.0031 73.472C49.0045 73.4744 49.0059 73.4768 49.0075 73.479L49.0086 73.4811L50.5355 75.5387L50.5373 75.5411C50.5387 75.5428 50.5405 75.5442 50.5419 75.5458C50.5429 75.5471 50.5441 75.5483 50.5453 75.5495L52.6578 77.487C52.6595 77.4886 52.6612 77.4897 52.6631 77.4911L52.6673 77.4945L55.3056 79.2792L55.3075 79.2801L55.3137 79.2839L55.3172 79.2855H55.3183L58.5717 80.7005L58.575 80.7016C58.5773 80.7025 58.5797 80.7033 58.5822 80.7039L58.5859 80.705L58.5917 80.7061H58.595L64.0397 81.3453H64.047L66.89 81.4244H66.893C66.8982 81.4243 66.9034 81.4238 66.9086 81.4228L66.912 81.4217H66.9144L71.122 80.2365L71.1245 80.2356L71.1281 80.2347L71.1314 80.2331L71.1337 80.232L71.1387 80.2298L71.1405 80.2289L74.8992 78.1664H74.9003L74.9019 78.1655C74.904 78.1641 74.906 78.1627 74.908 78.1611L74.913 78.1576L77.3327 76.0936L77.3352 76.0909L77.3383 76.0881L77.3414 76.0847H77.3423L79.2183 73.8467L79.2191 73.8456C79.2215 73.8425 79.2237 73.8392 79.2256 73.8358L79.228 73.8323V73.8314L81.8861 68.6406C81.8861 68.6395 81.887 68.6381 81.8877 68.6369L81.8903 68.6308V68.6278C81.891 68.6256 81.8916 68.6234 81.892 68.6211C81.892 68.6197 81.893 68.6183 81.8933 68.6167L82.4788 65.0656V65.0595L82.4803 65.0569ZM52.7673 77.3656L52.2205 76.8637L53.4512 77.828L52.7673 77.3656ZM60.753 79.4512L58.83 78.5522L63.3816 78.9615L60.753 79.4512ZM61.4542 63.0792L56.4055 63.6105L59.5189 58.3798L61.4542 63.0792ZM59.692 58.3686L65.8603 61.458L61.6178 63.0445L59.692 58.3686ZM61.5 63.2392L62.0869 67.893L56.4702 63.768L61.5 63.2392ZM62.0133 68.0426L55.9125 69.9625L56.323 63.864L62.0133 68.0426ZM61.6756 63.3169L66.4045 66.4575L62.2611 67.9606L61.6756 63.3169ZM61.7509 63.1698L65.9941 61.5831L66.4858 66.3136L61.7509 63.1698ZM68.2702 57.705L72.2031 55.8483L71.7597 60.2656L68.2702 57.705ZM71.625 60.37L66.2187 61.3575L68.1384 57.8125L71.625 60.37ZM66.0652 61.2969L62.5434 54.8305L68 57.7234L66.0652 61.2969ZM65.8678 61.2784L59.6592 58.169L62.3281 54.7786L65.8678 61.2784ZM56.2812 63.4986L55.4902 60.4786L59.3097 58.4109L56.2812 63.4986ZM55.7578 69.8125L52.7403 64.8612L56.1609 63.8222L55.7578 69.8125ZM61.9191 68.244L58.8494 71.523L56.0389 70.0945L61.9191 68.244ZM66.4642 66.6097L65.3694 70.5525L62.357 68.0994L66.4642 66.6097ZM66.1673 61.6537L70.7308 65.2533L66.6578 66.3734L66.1673 61.6537ZM66.2589 61.5167L71.7242 60.5184L70.8534 65.1406L66.2589 61.5167ZM71.9216 60.3003L72.3594 55.9328L74.8842 59.3619L71.9216 60.3003ZM74.9398 59.5162L75.0795 64.5181L71.9637 60.4594L74.9398 59.5162ZM68.197 57.5581L68.3019 53.8456L72.1094 55.7108L68.197 57.5581ZM68.0325 57.5548L62.5972 54.6726L68.1383 53.8119L68.0325 57.5548ZM59.5684 58.0176L58.5498 54.3111L62.1841 54.6955L59.5684 58.0176ZM59.4358 58.1555L55.5805 60.2425L58.4169 54.4481L59.4358 58.1555ZM56.1514 63.6536L52.8031 64.6706L55.362 60.6406L56.1514 63.6536ZM55.545 69.7794L51.3645 66.8178L52.6116 64.9659L55.545 69.7794ZM55.8825 70.1992L58.6919 71.6272L55.2361 73.5359L55.8825 70.1992ZM62.2005 68.1836L65.2175 70.6406L59.0864 71.51L62.2005 68.1836ZM66.6284 66.633L71.0816 70.9386L65.5216 70.619L66.6284 66.633ZM66.7466 66.5187L70.8337 65.3945L71.2009 70.8256L66.7466 66.5187ZM71.8741 60.6117L75.0161 64.7055L71.0108 65.1944L71.8741 60.6117ZM75.1053 59.5476L77.7589 61.0476L75.2442 64.5247L75.1053 59.5476ZM75.1333 59.3748L76.7766 56.6717L77.7566 60.8578L75.1333 59.3748ZM75.0125 59.2572L72.4853 55.8251L76.6775 56.5178L75.0125 59.2572ZM68.3683 53.6947L71.337 51.008L72.1892 55.5655L68.3683 53.6947ZM62.4953 54.5228L64.3784 51.1812L68.0061 53.6667L62.4953 54.5228ZM58.5642 54.1478L60.6989 49.8073L62.2236 54.5348L58.5642 54.1478ZM55.3864 60.2656L52.7992 55.9469L58.2836 54.3484L55.3864 60.2656ZM52.6486 64.6078L51.3972 59.5753L55.2627 60.4905L52.6486 64.6078ZM51.27 66.6642L50.1225 63.8125L52.4919 64.8492L51.27 66.6642ZM55.7316 70.1131L55.0836 73.4569L51.5037 67.1172L55.7316 70.1131ZM58.8173 71.7458L59.7991 75.0609L55.3303 73.6715L58.8173 71.7458ZM65.3086 70.7939L64.3353 75.1022L59.0947 71.6751L65.3086 70.7939ZM71.097 71.1045L68.5775 73.3858L65.6467 70.7909L71.097 71.1045ZM71.0061 65.5044L74.8853 69.424L71.3717 70.9133L71.0061 65.5044ZM71.0853 65.3508L75.0837 64.8626L74.9523 69.2581L71.0853 65.3508ZM77.848 61.2053L79.4452 66.5834L75.2947 64.7359L77.848 61.2053ZM76.9428 56.6606L79.5478 58.6359L77.9189 60.8305L76.9428 56.6606ZM72.4584 55.6551L74.8764 52.8853L76.663 56.3498L72.4584 55.6551ZM72.3491 55.5301L71.5028 51.0033L74.7644 52.7636L72.3491 55.5301ZM68.2162 53.6115L64.6047 51.1372L71.1698 50.938L68.2162 53.6115ZM62.3612 54.4258L60.847 49.7311L64.2334 51.1037L62.3612 54.4258ZM58.4237 54.0595L56.6703 51.6825L60.5334 49.77L58.4237 54.0595ZM58.302 54.1712L52.9312 55.7369L56.5398 51.7812L58.302 54.1712ZM55.2227 60.3119L51.3945 59.4056L52.6887 56.083L55.2227 60.3119ZM52.4942 64.6712L50.0711 63.6109L51.2742 59.7681L52.4942 64.6712ZM51.1431 66.7903L49.0587 67.5525L49.988 63.9201L51.1431 66.7903ZM54.892 73.4536L50.3067 70.6122L51.2777 67.0528L54.892 73.4536ZM59.5609 75.1584L55.2233 75.8459L55.2045 73.8036L59.5609 75.1584ZM59.0089 71.8147L64.1094 75.1505L59.9844 75.1036L59.0089 71.8147ZM65.4639 70.8484L68.4247 73.4698L64.5047 75.0989L65.4639 70.8484ZM71.2608 71.1765L72.8255 75.5128L68.7225 73.4765L71.2608 71.1765ZM71.4003 71.0784L74.8931 69.598L72.9687 75.4261L71.4003 71.0784ZM75.2464 64.8939L79.3961 66.7411L75.1148 69.3036L75.2464 64.8939ZM78.0252 61.2264L80.7383 63.1575L79.5803 66.4631L78.0252 61.2264ZM77.9939 61.003L79.6247 58.8059L80.6994 62.9284L77.9939 61.003ZM76.9058 56.4267L77.663 54.079L79.4664 58.3684L76.9058 56.4267ZM76.792 56.2434L75.0666 52.8973L77.5509 53.8903L76.792 56.2434ZM71.6805 50.9125L75.2933 50.6765L74.8384 52.6169L71.6805 50.9125ZM64.5269 50.975L67.0706 47.8205L71.1472 50.7736L64.5269 50.975ZM64.3766 50.8994L63.0669 47.4692L66.895 47.7775L64.3766 50.8994ZM64.2067 50.915L60.8609 49.5587L62.9119 47.5239L64.2067 50.915ZM56.6902 51.489L58.1287 47.3397L60.5706 49.5678L56.6902 51.489ZM52.8308 55.6033L53.8842 51.2919L56.3842 51.7078L52.8308 55.6033ZM51.2673 59.2826L49.9164 57.1626L52.5269 56.0489L51.2673 59.2826ZM51.1952 59.4755L50.0405 63.1612L49.8853 57.4198L51.1952 59.4755ZM49.8656 63.7384L48.9239 67.419L47.4455 63.742L49.8656 63.7384ZM47.4078 63.5781L47.4859 59.9647L49.8197 63.574L47.4078 63.5781ZM51.1305 66.9697L50.1945 70.4003L49.0508 67.7301L51.1305 66.9697ZM54.8861 73.6426L52.0444 74.0451L50.4198 70.875L54.8861 73.6426ZM55.0405 73.7865L55.0589 75.7995L52.2464 74.1823L55.0405 73.7865ZM59.78 75.2898L58.3414 78.3009L55.3437 75.994L59.78 75.2898ZM59.9477 75.3203L63.7489 78.8292L58.497 78.3569L59.9477 75.3203ZM60.1341 75.2687L64.2978 75.3156L63.918 78.7614L60.1341 75.2687ZM68.5 73.6175L68.6589 77.5103L64.5781 75.2464L68.5 73.6175ZM68.6653 73.6317L72.7834 75.6756L68.8241 77.5264L68.6653 73.6317ZM75.0522 69.6422L77.0966 72.8389L73.1253 75.4778L75.0522 69.6422ZM75.1945 69.5597L79.1308 70.1378L77.215 72.7187L75.1945 69.5597ZM75.2678 69.4045L79.4781 66.8842L79.2042 69.983L75.2678 69.4045ZM80.8286 63.3986L81.572 65.9994L79.7064 66.602L80.8286 63.3986ZM79.8394 58.9758L81.9717 61.6611L80.8762 62.9533L79.8394 58.9758ZM77.8441 54.0851L80.6134 56.1133L79.6617 58.4062L77.8441 54.0851ZM74.9895 52.6906L75.4359 50.7869L77.4305 53.6662L74.9895 52.6906ZM71.4583 50.763L70.9777 47.8542L75.143 50.5223L71.4583 50.763ZM71.2755 50.6659L67.3067 47.789L70.7977 47.7675L71.2755 50.6659ZM63.1998 47.3162L65.7916 45.7258L66.9034 47.6147L63.1998 47.3162ZM60.7112 49.4759L58.3125 47.2861L62.7516 47.4531L60.7112 49.4759ZM56.4905 51.5606L54 51.1455L57.9055 47.4836L56.4905 51.5606ZM52.625 55.7517L50.0753 53.6819L53.6937 51.3783L52.625 55.7517ZM52.5167 55.8753L49.8822 57L50.0106 53.8415L52.5167 55.8753ZM49.8811 63.3662L47.5141 59.7048L49.7172 57.3298L49.8811 63.3662ZM48.8556 67.6914L48.4062 69.9312L47.5197 64.3687L48.8556 67.6914ZM48.9697 67.9592L50.0791 70.5486L48.495 70.3265L48.9697 67.9592ZM51.8478 74.0228L50.1759 73.7011L50.2823 70.9667L51.8478 74.0228ZM55.0067 75.9595L53.8192 77.1017L52.2234 74.3594L55.0067 75.9595ZM55.1484 76.0511L58.0012 78.2469L53.9628 77.1911L55.1484 76.0511ZM64.4577 75.3675L68.5312 77.6264L64.0781 78.8228L64.4577 75.3675ZM72.8795 75.812L72.6566 78.6526L68.9844 77.6333L72.8795 75.812ZM76.9659 73.123L74.7052 77.0828L73.1081 75.6875L76.9659 73.123ZM79.1984 70.3234L79.2109 72.397L77.4016 72.7425L79.1984 70.3234ZM79.6516 66.7922L81.4912 66.1984L79.3923 69.7256L79.6516 66.7922ZM80.9278 63.1467L81.9723 61.9147L81.6316 65.6083L80.9278 63.1467ZM79.7559 58.6065L80.6934 56.3481L81.9086 61.3176L79.7559 58.6065ZM77.7617 53.8203L78.4205 52.67L80.4062 55.757L77.7617 53.8203ZM77.6473 53.6894L75.6986 50.8769L78.3062 52.5395L77.6473 53.6894ZM71.1084 47.7419L73.0812 47.5312L75.077 50.2833L71.1084 47.7419ZM67.1025 47.6262L66.0156 45.7803L70.4578 47.6055L67.1025 47.6262ZM62.9731 47.2631L62.0981 45.7306L65.5258 45.6965L62.9731 47.2631ZM62.7991 47.29L58.4817 47.1283L61.9212 45.7533L62.7991 47.29ZM54.0736 50.8508L55.6195 47.5036L57.8616 47.299L54.0736 50.8508ZM53.7958 51.06L52.3827 49.7026L55.3652 47.6622L53.7958 51.06ZM53.6898 51.1861L50.1762 53.423L52.2714 49.8236L53.6898 51.1861ZM49.7178 56.9915L47.9544 56.0434L49.8434 53.9019L49.7178 56.9915ZM49.6622 57.1478L47.5205 59.4562L47.8923 56.1965L49.6622 57.1478ZM47.2422 63.6212L46.3367 64.3622L47.3119 60.4336L47.2422 63.6212ZM47.2648 63.8148L48.1892 69.6137L46.295 64.6094L47.2648 63.8148ZM50.1269 70.7211L50.0208 73.4461L48.5408 70.4987L50.1269 70.7211ZM51.9455 74.2086L53.4487 76.7926L50.355 73.902L51.9455 74.2086ZM58.2869 78.4912L58.2214 79.9881L54.2759 77.4425L58.2869 78.4912ZM58.4487 78.5551L60.4956 79.5125L58.3837 80.029L58.4487 78.5551ZM63.9019 79.0314L63.9655 81.1309L60.9897 79.5739L63.9019 79.0314ZM68.605 77.7759L67.398 80.618L64.2058 78.9578L68.605 77.7759ZM68.7941 77.7514L72.4647 78.7698L67.5897 80.5881L68.7941 77.7514ZM73.0413 75.8475L74.5966 77.2069L72.8281 78.5795L73.0413 75.8475ZM77.2616 72.9361L79.0555 72.5937L75.1261 76.6773L77.2616 72.9361ZM79.373 72.1437L79.3606 70.1226L81.0145 69.112L79.373 72.1437ZM79.5183 69.8339L81.5259 66.4601L81.1578 68.8328L79.5183 69.8339ZM82.0784 62.5481L82.3128 65.0287L81.7823 65.7615L82.0784 62.5481ZM80.8597 56.3339L81.3184 56.764L81.7773 60.0867L80.8597 56.3339ZM78.5344 52.544L78.9661 52.3275L80.2141 55.1556L78.5344 52.544ZM75.5156 50.5644L76.2733 49.4797L78.1278 52.2297L75.5156 50.5644ZM75.398 50.4458L73.4219 47.722L76.1562 49.3594L75.398 50.4458ZM70.9487 47.5937L70.9366 46.4095L72.8392 47.3925L70.9487 47.5937ZM70.7839 47.5617L66.4352 45.775L70.7714 46.3459L70.7839 47.5617ZM62.1817 45.5656L62.8741 44.9719L65.1698 45.5362L62.1817 45.5656ZM58.4005 46.9837L59.7467 45.5336L61.6083 45.7009L58.4005 46.9837ZM58.0527 47.1167L56.0141 47.3026L59.3612 45.7072L58.0527 47.1167ZM52.4464 49.4595L52.6719 48.9551L54.5428 48.0253L52.4464 49.4595ZM49.9906 53.414L49.8547 52.0947L51.8906 50.1519L49.9906 53.414ZM49.8492 53.6464L48.1617 55.5595L49.7166 52.3587L49.8492 53.6464ZM47.3352 59.6261L46.257 59.8265L47.68 56.5956L47.3352 59.6261ZM47.2994 59.7997L46.2681 63.9515L46.2027 60.0036L47.2994 59.7997ZM48.2106 70.1359L46.9858 69.128L46.3992 65.3494L48.2106 70.1359ZM49.928 73.6284L49.1456 73.3708L48.6223 71.028L49.928 73.6284ZM53.2717 76.8522L50.6728 75.4375L50.2556 74.0351L53.2717 76.8522ZM53.7458 77.2972L54.8708 78.7317L51.4309 76.0372L53.7458 77.2972ZM54.1667 77.5675L57.7448 79.8759L55.4034 79.144L54.1667 77.5675ZM60.7312 79.6237L63.5125 81.0786L58.6784 80.1255L60.7312 79.6237ZM64.0681 79.0706L67.1811 80.6895L64.1319 81.1731L64.0681 79.0706ZM72.3309 78.9951L71.0672 80.0853L68.2234 80.5269L72.3309 78.9951ZM74.6667 77.3611L74.7719 78.0412L73.1384 78.5469L74.6667 77.3611ZM78.9053 72.9861L77.225 75.9705L75.0872 76.9537L78.9053 72.9861ZM79.3741 72.4886L80.4991 70.4105L79.2959 73.2609L79.3741 72.4886ZM81.752 66.0844L82.1769 65.4976L81.4939 67.743L81.752 66.0844ZM82.1606 61.6562V61.6512L82.1545 61.6076L82.1969 61.0514L82.24 62.4919L82.1606 61.6562ZM82.0477 60.8372L81.6227 57.759L82.1489 59.5058L82.0477 60.8372ZM80.7833 56.0362L80.0075 54.2783L81.0931 56.3265L80.7833 56.0362ZM78.4442 52.4062L76.895 50.1094L78.8714 52.1925L78.4442 52.4062ZM73.2691 47.4392L73.3727 47.3644L74.5636 48.2147L73.2691 47.4392ZM73.1128 47.3495L72.3075 46.9334L73.2023 47.2847L73.1128 47.3495ZM66.315 45.5937L67.8241 45.2836L70.0948 46.0914L66.315 45.5937ZM65.8227 45.5273L63.7678 45.0223L67.2133 45.2411L65.8227 45.5273ZM61.93 45.565L60.3272 45.4209L62.5697 45.0162L61.93 45.565ZM56.2737 46.9969L57.1908 46.3094L58.6691 45.855L56.2737 46.9969ZM55.5211 47.3562L54.7256 47.7515L55.9486 47.0359L55.5211 47.3562ZM52.1842 49.6437L51.2406 50.5447L52.3195 49.3415L52.1842 49.6437ZM47.7647 56.0012L47.3452 56.1575L48.975 53.5103L47.7647 56.0012ZM47.2178 56.3787L47.6709 56.2111L46.5261 58.8105L47.2178 56.3787ZM46.0905 63.1236L46.1145 64.5705L46.0312 64.8334L46.0905 63.1236ZM46.1686 64.9401L46.5814 67.5994L46.0123 65.4297L46.1686 64.9401ZM48.322 70.4411L48.8522 72.8145L47.1611 69.4844L48.322 70.4411ZM50.023 73.8328L50.3909 75.0701L49.2969 73.5937L50.023 73.8328ZM58.2428 80.2039L58.3964 80.4487L56.7889 79.75L58.2428 80.2039ZM58.6558 80.553L58.467 80.252L61.9658 80.9414L58.6558 80.553ZM67.2262 80.8486L66.8594 81.2656L64.9387 81.2122L67.2262 80.8486ZM67.4811 80.8083L69.7706 80.4528L67.1408 81.1934L67.4811 80.8083ZM72.7712 78.8317L74.1139 78.4164L71.7462 79.7159L72.7712 78.8317ZM74.922 77.9411L74.8166 77.2597L76.7786 76.3573L74.922 77.9411ZM79.172 72.8473L79.0802 73.763L77.7898 75.3023L79.172 72.8473ZM81.297 68.9433L81.6286 68.7836L80.1111 71.7542L81.297 68.9433ZM81.7386 68.5484L81.3664 68.7276L82.1145 66.2678L81.7386 68.5484Z" fill="url(#paint2_radial_6_126)"/>
<path d="M82.4803 65.0569V65.0483L82.3141 59.494V59.4878C82.3141 59.4858 82.3141 59.4839 82.3131 59.482C82.3122 59.4801 82.3122 59.477 82.3116 59.4747V59.473L81.4764 56.7014V56.6997L81.4747 56.6951C81.4747 56.6931 81.4731 56.6911 81.4722 56.6892L81.4711 56.6867L79.0816 52.178L79.0802 52.1758L79.0772 52.1711L79.0745 52.1672L79.0728 52.1648L79.0703 52.162L79.0686 52.1598L76.3337 49.2781L76.3325 49.277L76.3306 49.2751C76.3291 49.2736 76.3272 49.2723 76.3255 49.2709L76.3219 49.2678L73.4211 47.197H73.4197L73.417 47.1951C73.4151 47.194 73.413 47.1929 73.4109 47.192C73.4089 47.1908 73.4068 47.1898 73.4047 47.1889H73.4034L70.8858 46.2008H70.8819L67.8595 45.1258H67.8567L67.8509 45.1242L67.8456 45.1231H67.8372L62.8598 44.8064H62.8512C62.8485 44.8062 62.8458 44.8062 62.8431 44.8064H62.84L59.7014 45.3728H59.6947L59.6891 45.3744L57.1309 46.1608L57.1253 46.163C57.1231 46.1639 57.1208 46.1648 57.1187 46.1659L57.1155 46.1675H57.1144L52.5703 48.827H52.5694L52.5656 48.8295L52.562 48.8319L52.5591 48.8345L52.5562 48.8367L52.5531 48.8401L52.5506 48.8423L52.5495 48.8436L49.7106 52.0105L49.7095 52.012L49.7075 52.0144L49.7056 52.017L49.7031 52.0206L49.7019 52.0222L49.7009 52.0237L47.0803 56.2734L47.0791 56.2759L47.0766 56.2803L47.0744 56.2855C47.0744 56.2875 47.0728 56.2894 47.0722 56.2914L47.0712 56.2939L46.0411 59.9134V59.9253C46.0407 59.9273 46.0404 59.9293 46.0403 59.9314V59.933L45.8478 65.4245V65.4381C45.8481 65.4404 45.8485 65.4426 45.8491 65.4448V65.4505L46.8305 69.1923V69.1939L46.8314 69.1967C46.8323 69.1994 46.8334 69.202 46.8345 69.2045C46.8345 69.2058 46.8355 69.2072 46.8361 69.2084L49.0017 73.47L49.0031 73.472C49.0045 73.4744 49.0059 73.4768 49.0075 73.479L49.0086 73.4811L50.5355 75.5387L50.5373 75.5411C50.5387 75.5428 50.5405 75.5442 50.5419 75.5458C50.5429 75.5471 50.5441 75.5483 50.5453 75.5495L52.6578 77.487C52.6595 77.4886 52.6612 77.4897 52.6631 77.4911L52.6673 77.4945L55.3056 79.2792L55.3075 79.2801L55.3137 79.2839L55.3172 79.2855H55.3183L58.5717 80.7005L58.575 80.7016C58.5773 80.7025 58.5797 80.7033 58.5822 80.7039L58.5859 80.705L58.5917 80.7061H58.595L64.0397 81.3453H64.047L66.89 81.4244H66.893C66.8982 81.4243 66.9034 81.4238 66.9086 81.4228L66.912 81.4217H66.9144L71.122 80.2365L71.1245 80.2356L71.1281 80.2347L71.1314 80.2331L71.1337 80.232L71.1387 80.2298L71.1405 80.2289L74.8992 78.1664H74.9003L74.9019 78.1655C74.904 78.1641 74.906 78.1627 74.908 78.1611L74.913 78.1576L77.3327 76.0936L77.3352 76.0909L77.3383 76.0881L77.3414 76.0847H77.3423L79.2183 73.8467L79.2191 73.8456C79.2215 73.8425 79.2237 73.8392 79.2256 73.8358L79.228 73.8323V73.8314L81.8861 68.6406C81.8861 68.6395 81.887 68.6381 81.8877 68.6369L81.8903 68.6308V68.6278C81.891 68.6256 81.8916 68.6234 81.892 68.6211C81.892 68.6197 81.893 68.6183 81.8933 68.6167L82.4788 65.0656V65.0595L82.4803 65.0569ZM52.7673 77.3656L52.2205 76.8637L53.4512 77.828L52.7673 77.3656ZM60.753 79.4512L58.83 78.5522L63.3816 78.9615L60.753 79.4512ZM61.4542 63.0792L56.4055 63.6105L59.5189 58.3798L61.4542 63.0792ZM59.692 58.3686L65.8603 61.458L61.6178 63.0445L59.692 58.3686ZM61.5 63.2392L62.0869 67.893L56.4702 63.768L61.5 63.2392ZM62.0133 68.0426L55.9125 69.9625L56.323 63.864L62.0133 68.0426ZM61.6756 63.3169L66.4045 66.4575L62.2611 67.9606L61.6756 63.3169ZM61.7509 63.1698L65.9941 61.5831L66.4858 66.3136L61.7509 63.1698ZM68.2702 57.705L72.2031 55.8483L71.7597 60.2656L68.2702 57.705ZM71.625 60.37L66.2187 61.3575L68.1384 57.8125L71.625 60.37ZM66.0652 61.2969L62.5434 54.8305L68 57.7234L66.0652 61.2969ZM65.8678 61.2784L59.6592 58.169L62.3281 54.7786L65.8678 61.2784ZM56.2812 63.4986L55.4902 60.4786L59.3097 58.4109L56.2812 63.4986ZM55.7578 69.8125L52.7403 64.8612L56.1609 63.8222L55.7578 69.8125ZM61.9191 68.244L58.8494 71.523L56.0389 70.0945L61.9191 68.244ZM66.4642 66.6097L65.3694 70.5525L62.357 68.0994L66.4642 66.6097ZM66.1673 61.6537L70.7308 65.2533L66.6578 66.3734L66.1673 61.6537ZM66.2589 61.5167L71.7242 60.5184L70.8534 65.1406L66.2589 61.5167ZM71.9216 60.3003L72.3594 55.9328L74.8842 59.3619L71.9216 60.3003ZM74.9398 59.5162L75.0795 64.5181L71.9637 60.4594L74.9398 59.5162ZM68.197 57.5581L68.3019 53.8456L72.1094 55.7108L68.197 57.5581ZM68.0325 57.5548L62.5972 54.6726L68.1383 53.8119L68.0325 57.5548ZM59.5684 58.0176L58.5498 54.3111L62.1841 54.6955L59.5684 58.0176ZM59.4358 58.1555L55.5805 60.2425L58.4169 54.4481L59.4358 58.1555ZM56.1514 63.6536L52.8031 64.6706L55.362 60.6406L56.1514 63.6536ZM55.545 69.7794L51.3645 66.8178L52.6116 64.9659L55.545 69.7794ZM55.8825 70.1992L58.6919 71.6272L55.2361 73.5359L55.8825 70.1992ZM62.2005 68.1836L65.2175 70.6406L59.0864 71.51L62.2005 68.1836ZM66.6284 66.633L71.0816 70.9386L65.5216 70.619L66.6284 66.633ZM66.7466 66.5187L70.8337 65.3945L71.2009 70.8256L66.7466 66.5187ZM71.8741 60.6117L75.0161 64.7055L71.0108 65.1944L71.8741 60.6117ZM75.1053 59.5476L77.7589 61.0476L75.2442 64.5247L75.1053 59.5476ZM75.1333 59.3748L76.7766 56.6717L77.7566 60.8578L75.1333 59.3748ZM75.0125 59.2572L72.4853 55.8251L76.6775 56.5178L75.0125 59.2572ZM68.3683 53.6947L71.337 51.008L72.1892 55.5655L68.3683 53.6947ZM62.4953 54.5228L64.3784 51.1812L68.0061 53.6667L62.4953 54.5228ZM58.5642 54.1478L60.6989 49.8073L62.2236 54.5348L58.5642 54.1478ZM55.3864 60.2656L52.7992 55.9469L58.2836 54.3484L55.3864 60.2656ZM52.6486 64.6078L51.3972 59.5753L55.2627 60.4905L52.6486 64.6078ZM51.27 66.6642L50.1225 63.8125L52.4919 64.8492L51.27 66.6642ZM55.7316 70.1131L55.0836 73.4569L51.5037 67.1172L55.7316 70.1131ZM58.8173 71.7458L59.7991 75.0609L55.3303 73.6715L58.8173 71.7458ZM65.3086 70.7939L64.3353 75.1022L59.0947 71.6751L65.3086 70.7939ZM71.097 71.1045L68.5775 73.3858L65.6467 70.7909L71.097 71.1045ZM71.0061 65.5044L74.8853 69.424L71.3717 70.9133L71.0061 65.5044ZM71.0853 65.3508L75.0837 64.8626L74.9523 69.2581L71.0853 65.3508ZM77.848 61.2053L79.4452 66.5834L75.2947 64.7359L77.848 61.2053ZM76.9428 56.6606L79.5478 58.6359L77.9189 60.8305L76.9428 56.6606ZM72.4584 55.6551L74.8764 52.8853L76.663 56.3498L72.4584 55.6551ZM72.3491 55.5301L71.5028 51.0033L74.7644 52.7636L72.3491 55.5301ZM68.2162 53.6115L64.6047 51.1372L71.1698 50.938L68.2162 53.6115ZM62.3612 54.4258L60.847 49.7311L64.2334 51.1037L62.3612 54.4258ZM58.4237 54.0595L56.6703 51.6825L60.5334 49.77L58.4237 54.0595ZM58.302 54.1712L52.9312 55.7369L56.5398 51.7812L58.302 54.1712ZM55.2227 60.3119L51.3945 59.4056L52.6887 56.083L55.2227 60.3119ZM52.4942 64.6712L50.0711 63.6109L51.2742 59.7681L52.4942 64.6712ZM51.1431 66.7903L49.0587 67.5525L49.988 63.9201L51.1431 66.7903ZM54.892 73.4536L50.3067 70.6122L51.2777 67.0528L54.892 73.4536ZM59.5609 75.1584L55.2233 75.8459L55.2045 73.8036L59.5609 75.1584ZM59.0089 71.8147L64.1094 75.1505L59.9844 75.1036L59.0089 71.8147ZM65.4639 70.8484L68.4247 73.4698L64.5047 75.0989L65.4639 70.8484ZM71.2608 71.1765L72.8255 75.5128L68.7225 73.4765L71.2608 71.1765ZM71.4003 71.0784L74.8931 69.598L72.9687 75.4261L71.4003 71.0784ZM75.2464 64.8939L79.3961 66.7411L75.1148 69.3036L75.2464 64.8939ZM78.0252 61.2264L80.7383 63.1575L79.5803 66.4631L78.0252 61.2264ZM77.9939 61.003L79.6247 58.8059L80.6994 62.9284L77.9939 61.003ZM76.9058 56.4267L77.663 54.079L79.4664 58.3684L76.9058 56.4267ZM76.792 56.2434L75.0666 52.8973L77.5509 53.8903L76.792 56.2434ZM71.6805 50.9125L75.2933 50.6765L74.8384 52.6169L71.6805 50.9125ZM64.5269 50.975L67.0706 47.8205L71.1472 50.7736L64.5269 50.975ZM64.3766 50.8994L63.0669 47.4692L66.895 47.7775L64.3766 50.8994ZM64.2067 50.915L60.8609 49.5587L62.9119 47.5239L64.2067 50.915ZM56.6902 51.489L58.1287 47.3397L60.5706 49.5678L56.6902 51.489ZM52.8308 55.6033L53.8842 51.2919L56.3842 51.7078L52.8308 55.6033ZM51.2673 59.2826L49.9164 57.1626L52.5269 56.0489L51.2673 59.2826ZM51.1952 59.4755L50.0405 63.1612L49.8853 57.4198L51.1952 59.4755ZM49.8656 63.7384L48.9239 67.419L47.4455 63.742L49.8656 63.7384ZM47.4078 63.5781L47.4859 59.9647L49.8197 63.574L47.4078 63.5781ZM51.1305 66.9697L50.1945 70.4003L49.0508 67.7301L51.1305 66.9697ZM54.8861 73.6426L52.0444 74.0451L50.4198 70.875L54.8861 73.6426ZM55.0405 73.7865L55.0589 75.7995L52.2464 74.1823L55.0405 73.7865ZM59.78 75.2898L58.3414 78.3009L55.3437 75.994L59.78 75.2898ZM59.9477 75.3203L63.7489 78.8292L58.497 78.3569L59.9477 75.3203ZM60.1341 75.2687L64.2978 75.3156L63.918 78.7614L60.1341 75.2687ZM68.5 73.6175L68.6589 77.5103L64.5781 75.2464L68.5 73.6175ZM68.6653 73.6317L72.7834 75.6756L68.8241 77.5264L68.6653 73.6317ZM75.0522 69.6422L77.0966 72.8389L73.1253 75.4778L75.0522 69.6422ZM75.1945 69.5597L79.1308 70.1378L77.215 72.7187L75.1945 69.5597ZM75.2678 69.4045L79.4781 66.8842L79.2042 69.983L75.2678 69.4045ZM80.8286 63.3986L81.572 65.9994L79.7064 66.602L80.8286 63.3986ZM79.8394 58.9758L81.9717 61.6611L80.8762 62.9533L79.8394 58.9758ZM77.8441 54.0851L80.6134 56.1133L79.6617 58.4062L77.8441 54.0851ZM74.9895 52.6906L75.4359 50.7869L77.4305 53.6662L74.9895 52.6906ZM71.4583 50.763L70.9777 47.8542L75.143 50.5223L71.4583 50.763ZM71.2755 50.6659L67.3067 47.789L70.7977 47.7675L71.2755 50.6659ZM63.1998 47.3162L65.7916 45.7258L66.9034 47.6147L63.1998 47.3162ZM60.7112 49.4759L58.3125 47.2861L62.7516 47.4531L60.7112 49.4759ZM56.4905 51.5606L54 51.1455L57.9055 47.4836L56.4905 51.5606ZM52.625 55.7517L50.0753 53.6819L53.6937 51.3783L52.625 55.7517ZM52.5167 55.8753L49.8822 57L50.0106 53.8415L52.5167 55.8753ZM49.8811 63.3662L47.5141 59.7048L49.7172 57.3298L49.8811 63.3662ZM48.8556 67.6914L48.4062 69.9312L47.5197 64.3687L48.8556 67.6914ZM48.9697 67.9592L50.0791 70.5486L48.495 70.3265L48.9697 67.9592ZM51.8478 74.0228L50.1759 73.7011L50.2823 70.9667L51.8478 74.0228ZM55.0067 75.9595L53.8192 77.1017L52.2234 74.3594L55.0067 75.9595ZM55.1484 76.0511L58.0012 78.2469L53.9628 77.1911L55.1484 76.0511ZM64.4577 75.3675L68.5312 77.6264L64.0781 78.8228L64.4577 75.3675ZM72.8795 75.812L72.6566 78.6526L68.9844 77.6333L72.8795 75.812ZM76.9659 73.123L74.7052 77.0828L73.1081 75.6875L76.9659 73.123ZM79.1984 70.3234L79.2109 72.397L77.4016 72.7425L79.1984 70.3234ZM79.6516 66.7922L81.4912 66.1984L79.3923 69.7256L79.6516 66.7922ZM80.9278 63.1467L81.9723 61.9147L81.6316 65.6083L80.9278 63.1467ZM79.7559 58.6065L80.6934 56.3481L81.9086 61.3176L79.7559 58.6065ZM77.7617 53.8203L78.4205 52.67L80.4062 55.757L77.7617 53.8203ZM77.6473 53.6894L75.6986 50.8769L78.3062 52.5395L77.6473 53.6894ZM71.1084 47.7419L73.0812 47.5312L75.077 50.2833L71.1084 47.7419ZM67.1025 47.6262L66.0156 45.7803L70.4578 47.6055L67.1025 47.6262ZM62.9731 47.2631L62.0981 45.7306L65.5258 45.6965L62.9731 47.2631ZM62.7991 47.29L58.4817 47.1283L61.9212 45.7533L62.7991 47.29ZM54.0736 50.8508L55.6195 47.5036L57.8616 47.299L54.0736 50.8508ZM53.7958 51.06L52.3827 49.7026L55.3652 47.6622L53.7958 51.06ZM53.6898 51.1861L50.1762 53.423L52.2714 49.8236L53.6898 51.1861ZM49.7178 56.9915L47.9544 56.0434L49.8434 53.9019L49.7178 56.9915ZM49.6622 57.1478L47.5205 59.4562L47.8923 56.1965L49.6622 57.1478ZM47.2422 63.6212L46.3367 64.3622L47.3119 60.4336L47.2422 63.6212ZM47.2648 63.8148L48.1892 69.6137L46.295 64.6094L47.2648 63.8148ZM50.1269 70.7211L50.0208 73.4461L48.5408 70.4987L50.1269 70.7211ZM51.9455 74.2086L53.4487 76.7926L50.355 73.902L51.9455 74.2086ZM58.2869 78.4912L58.2214 79.9881L54.2759 77.4425L58.2869 78.4912ZM58.4487 78.5551L60.4956 79.5125L58.3837 80.029L58.4487 78.5551ZM63.9019 79.0314L63.9655 81.1309L60.9897 79.5739L63.9019 79.0314ZM68.605 77.7759L67.398 80.618L64.2058 78.9578L68.605 77.7759ZM68.7941 77.7514L72.4647 78.7698L67.5897 80.5881L68.7941 77.7514ZM73.0413 75.8475L74.5966 77.2069L72.8281 78.5795L73.0413 75.8475ZM77.2616 72.9361L79.0555 72.5937L75.1261 76.6773L77.2616 72.9361ZM79.373 72.1437L79.3606 70.1226L81.0145 69.112L79.373 72.1437ZM79.5183 69.8339L81.5259 66.4601L81.1578 68.8328L79.5183 69.8339ZM82.0784 62.5481L82.3128 65.0287L81.7823 65.7615L82.0784 62.5481ZM80.8597 56.3339L81.3184 56.764L81.7773 60.0867L80.8597 56.3339ZM78.5344 52.544L78.9661 52.3275L80.2141 55.1556L78.5344 52.544ZM75.5156 50.5644L76.2733 49.4797L78.1278 52.2297L75.5156 50.5644ZM75.398 50.4458L73.4219 47.722L76.1562 49.3594L75.398 50.4458ZM70.9487 47.5937L70.9366 46.4095L72.8392 47.3925L70.9487 47.5937ZM70.7839 47.5617L66.4352 45.775L70.7714 46.3459L70.7839 47.5617ZM62.1817 45.5656L62.8741 44.9719L65.1698 45.5362L62.1817 45.5656ZM58.4005 46.9837L59.7467 45.5336L61.6083 45.7009L58.4005 46.9837ZM58.0527 47.1167L56.0141 47.3026L59.3612 45.7072L58.0527 47.1167ZM52.4464 49.4595L52.6719 48.9551L54.5428 48.0253L52.4464 49.4595ZM49.9906 53.414L49.8547 52.0947L51.8906 50.1519L49.9906 53.414ZM49.8492 53.6464L48.1617 55.5595L49.7166 52.3587L49.8492 53.6464ZM47.3352 59.6261L46.257 59.8265L47.68 56.5956L47.3352 59.6261ZM47.2994 59.7997L46.2681 63.9515L46.2027 60.0036L47.2994 59.7997ZM48.2106 70.1359L46.9858 69.128L46.3992 65.3494L48.2106 70.1359ZM49.928 73.6284L49.1456 73.3708L48.6223 71.028L49.928 73.6284ZM53.2717 76.8522L50.6728 75.4375L50.2556 74.0351L53.2717 76.8522ZM53.7458 77.2972L54.8708 78.7317L51.4309 76.0372L53.7458 77.2972ZM54.1667 77.5675L57.7448 79.8759L55.4034 79.144L54.1667 77.5675ZM60.7312 79.6237L63.5125 81.0786L58.6784 80.1255L60.7312 79.6237ZM64.0681 79.0706L67.1811 80.6895L64.1319 81.1731L64.0681 79.0706ZM72.3309 78.9951L71.0672 80.0853L68.2234 80.5269L72.3309 78.9951ZM74.6667 77.3611L74.7719 78.0412L73.1384 78.5469L74.6667 77.3611ZM78.9053 72.9861L77.225 75.9705L75.0872 76.9537L78.9053 72.9861ZM79.3741 72.4886L80.4991 70.4105L79.2959 73.2609L79.3741 72.4886ZM81.752 66.0844L82.1769 65.4976L81.4939 67.743L81.752 66.0844ZM82.1606 61.6562V61.6512L82.1545 61.6076L82.1969 61.0514L82.24 62.4919L82.1606 61.6562ZM82.0477 60.8372L81.6227 57.759L82.1489 59.5058L82.0477 60.8372ZM80.7833 56.0362L80.0075 54.2783L81.0931 56.3265L80.7833 56.0362ZM78.4442 52.4062L76.895 50.1094L78.8714 52.1925L78.4442 52.4062ZM73.2691 47.4392L73.3727 47.3644L74.5636 48.2147L73.2691 47.4392ZM73.1128 47.3495L72.3075 46.9334L73.2023 47.2847L73.1128 47.3495ZM66.315 45.5937L67.8241 45.2836L70.0948 46.0914L66.315 45.5937ZM65.8227 45.5273L63.7678 45.0223L67.2133 45.2411L65.8227 45.5273ZM61.93 45.565L60.3272 45.4209L62.5697 45.0162L61.93 45.565ZM56.2737 46.9969L57.1908 46.3094L58.6691 45.855L56.2737 46.9969ZM55.5211 47.3562L54.7256 47.7515L55.9486 47.0359L55.5211 47.3562ZM52.1842 49.6437L51.2406 50.5447L52.3195 49.3415L52.1842 49.6437ZM47.7647 56.0012L47.3452 56.1575L48.975 53.5103L47.7647 56.0012ZM47.2178 56.3787L47.6709 56.2111L46.5261 58.8105L47.2178 56.3787ZM46.0905 63.1236L46.1145 64.5705L46.0312 64.8334L46.0905 63.1236ZM46.1686 64.9401L46.5814 67.5994L46.0123 65.4297L46.1686 64.9401ZM48.322 70.4411L48.8522 72.8145L47.1611 69.4844L48.322 70.4411ZM50.023 73.8328L50.3909 75.0701L49.2969 73.5937L50.023 73.8328ZM58.2428 80.2039L58.3964 80.4487L56.7889 79.75L58.2428 80.2039ZM58.6558 80.553L58.467 80.252L61.9658 80.9414L58.6558 80.553ZM67.2262 80.8486L66.8594 81.2656L64.9387 81.2122L67.2262 80.8486ZM67.4811 80.8083L69.7706 80.4528L67.1408 81.1934L67.4811 80.8083ZM72.7712 78.8317L74.1139 78.4164L71.7462 79.7159L72.7712 78.8317ZM74.922 77.9411L74.8166 77.2597L76.7786 76.3573L74.922 77.9411ZM79.172 72.8473L79.0802 73.763L77.7898 75.3023L79.172 72.8473ZM81.297 68.9433L81.6286 68.7836L80.1111 71.7542L81.297 68.9433ZM81.7386 68.5484L81.3664 68.7276L82.1145 66.2678L81.7386 68.5484Z" fill="url(#paint3_radial_6_126)"/>
<path d="M98.8405 49.9937C97.2066 46.0681 93.8973 41.83 91.2987 40.4906C93.4137 44.6312 94.6377 48.7862 95.1055 51.8865C95.1055 51.8776 95.1072 51.8942 95.1111 51.9218C95.113 51.9353 95.1153 51.949 95.1173 51.9625C98.6642 61.5669 96.732 71.3336 93.9475 77.3017C89.6394 86.5361 79.2092 95.9998 62.8837 95.5381C45.2447 95.0393 29.7064 81.9673 26.8056 64.8459C26.2772 62.1461 26.8056 60.7751 27.0712 58.5829C26.7472 60.2729 26.6239 60.7611 26.4619 63.7637C26.4619 63.8278 26.458 63.8912 26.458 63.9554C26.4581 84.6908 43.2895 101.5 64.0523 101.5C72.9149 101.504 81.4937 98.3757 88.2739 92.6684C95.0542 86.9612 99.5997 79.0417 101.108 70.3084C101.172 69.8278 101.223 69.3447 101.279 68.86C102.026 62.4209 101.196 55.6531 98.8405 49.9937V49.9937Z" fill="url(#paint4_radial_6_126)"/>
<path d="M98.8405 49.9937C97.2066 46.0681 93.8973 41.83 91.2987 40.4906C93.4137 44.6312 94.6377 48.7862 95.1055 51.8865C95.1055 51.8776 95.1072 51.8942 95.1111 51.9218C95.113 51.9353 95.1153 51.949 95.1173 51.9625C98.6642 61.5669 96.732 71.3336 93.9475 77.3017C89.6394 86.5361 79.2092 95.9998 62.8837 95.5381C45.2447 95.0393 29.7064 81.9673 26.8056 64.8459C26.2772 62.1461 26.8056 60.7751 27.0712 58.5829C26.7472 60.2729 26.6239 60.7611 26.4619 63.7637C26.4619 63.8278 26.458 63.8912 26.458 63.9554C26.4581 84.6908 43.2895 101.5 64.0523 101.5C72.9149 101.504 81.4937 98.3757 88.2739 92.6684C95.0542 86.9612 99.5997 79.0417 101.108 70.3084C101.172 69.8278 101.223 69.3447 101.279 68.86C102.026 62.4209 101.196 55.6531 98.8405 49.9937V49.9937Z" fill="url(#paint5_radial_6_126)"/>
<path d="M26.8058 64.846C29.7064 81.9674 45.2447 95.0394 62.8839 95.5381C79.2094 95.9999 89.6395 86.5353 93.9477 77.3017C96.7322 71.333 98.6645 61.5674 95.1175 51.9625L95.1163 51.9585L95.1112 51.9219C95.1073 51.8942 95.1048 51.8777 95.1056 51.8866C95.1056 51.8928 95.108 51.9078 95.113 51.9491C96.4462 60.646 92.0172 69.0711 85.0933 74.7678C85.0809 74.7974 85.0725 74.8167 85.0725 74.8167C71.5811 85.7889 58.6709 81.4367 56.0569 79.6552C55.8733 79.567 55.691 79.4762 55.51 79.3828C47.6444 75.6283 44.3948 68.4708 45.0916 62.3325C38.45 62.3325 36.1853 56.7375 36.1853 56.7375C36.1853 56.7375 42.1483 52.4908 50.0073 56.1842C57.2859 59.605 64.1217 56.7378 64.1225 56.7375C64.1084 56.4325 57.5655 53.833 55.0145 51.3227C53.6516 49.9813 53.0044 49.3347 52.4313 48.8495C52.1203 48.5872 51.7952 48.3421 51.4575 48.1152C51.1996 47.9405 50.9398 47.7687 50.6783 47.5995C47.9364 45.8195 42.4833 45.9177 42.3033 45.9222H42.2858C40.7955 44.0369 40.9006 37.8174 40.9856 36.5188C40.9677 36.4381 39.8738 37.086 39.7305 37.1835C38.4152 38.1212 37.1854 39.1736 36.0556 40.3281C34.7704 41.6297 33.5961 43.0362 32.5448 44.5331C32.5448 44.535 32.5438 44.537 32.5431 44.5389C32.5431 44.537 32.5442 44.535 32.5448 44.533C30.1278 47.9538 28.4132 51.8201 27.5005 55.908C27.4823 55.9903 26.1472 61.8216 26.8058 64.846V64.846Z" fill="url(#paint6_radial_6_126)"/>
<path d="M77.3147 50.0302C78.6861 51.3748 79.861 52.9061 80.8047 54.5789C81.0117 54.7342 81.2049 54.8891 81.3691 55.0402C89.8917 62.8839 85.4264 73.9777 85.0931 74.7678C92.017 69.0711 96.4461 60.6459 95.1128 51.9491C90.8617 41.3661 83.6536 37.0986 77.7667 27.807C77.4691 27.3372 77.1716 26.8661 76.8813 26.3695C76.7334 26.116 76.5953 25.8569 76.4674 25.5928C76.2232 25.1212 76.035 24.6227 75.9063 24.1075C75.9072 24.0831 75.8989 24.0592 75.8831 24.0406C75.8674 24.0219 75.8452 24.0099 75.8209 24.0067C75.7979 24.0001 75.7734 24.0001 75.7503 24.0067C75.745 24.0086 75.7372 24.0147 75.7316 24.0169C75.7233 24.0202 75.7128 24.0277 75.7041 24.0325C74.25 24.7244 65.6284 38.3594 77.3147 50.0302V50.0302Z" fill="url(#paint7_linear_6_126)"/>
<path d="M62.8527 44.882L67.83 45.1988L70.853 46.2741L73.3723 47.263L76.2739 49.3345L79.0072 52.2153L79.9567 54.007C80.0842 54.0852 80.3473 54.2549 80.5711 54.4067C80.6531 54.4642 80.7273 54.5216 80.8055 54.5786C79.8618 52.9058 78.6869 51.3745 77.3155 50.0299C65.6284 38.3594 74.25 24.7244 75.7044 24.0313C75.7086 24.0256 75.7173 24.013 75.72 24.01C66.2762 29.5344 63.0725 39.7536 62.7781 44.8666L62.7767 44.8952L62.8527 44.882Z" fill="url(#paint8_linear_6_126)"/>
<path d="M50.6781 47.6005C50.94 47.7692 51.1997 47.9411 51.4573 48.1161C50.6004 45.1219 50.564 41.9525 51.3519 38.9394C47.49 40.6958 44.4861 43.4722 42.3025 45.9238C42.4831 45.9186 47.9363 45.8205 50.6781 47.6005Z" fill="url(#paint9_radial_6_126)"/>
<path d="M47.175 67.3516C47.175 67.3516 48.9109 60.8922 59.6016 60.8922C60.7578 60.8922 64.0609 57.6719 64.1219 56.7375C64.1219 56.7375 57.2859 59.6047 50.0078 56.1844C42.1484 52.4906 36.1875 56.7375 36.1875 56.7375C36.1875 56.7375 38.4531 62.3328 45.0938 62.3328C44.3984 68.4703 47.6469 75.6281 55.5125 79.3828C55.6891 79.4672 55.8547 79.5578 56.0344 79.6391C51.4406 77.2688 47.65 72.7906 47.175 67.3516Z" fill="url(#paint10_radial_6_126)"/>
<path d="M81.3691 55.0402C81.2048 54.8891 81.0117 54.7342 80.8047 54.5789C80.7281 54.5216 80.6531 54.4642 80.5703 54.4071C78.563 52.9986 74.9686 51.6075 71.5056 52.2091C85.0277 58.9611 81.3975 82.2127 62.6602 81.3341C60.9917 81.2661 59.3428 80.9485 57.7684 80.3919C57.3961 80.2522 57.0279 80.1018 56.6642 79.941C56.452 79.8442 56.2402 79.7467 56.0306 79.6385C56.0381 79.6438 56.0484 79.6496 56.0561 79.6541C58.67 81.4353 71.5802 85.7878 85.0717 74.8156C85.0717 74.8156 85.0802 74.7963 85.0925 74.7667C85.4264 73.978 89.8917 62.8839 81.3691 55.0402V55.0402Z" fill="url(#paint11_radial_6_126)"/>
<path d="M98.8374 49.9922C97.2034 46.0665 93.8941 41.8284 91.2955 40.489C93.4105 44.6297 94.6345 48.7847 95.1023 51.885C95.1023 51.8912 95.1047 51.9062 95.1097 51.9475C90.8594 41.3645 83.6503 37.097 77.7636 27.8055C77.4667 27.3355 77.1684 26.8645 76.878 26.368C76.7301 26.1145 76.5921 25.8554 76.4642 25.5912C76.2203 25.1199 76.0321 24.6217 75.9034 24.1069C75.9043 24.0824 75.8961 24.0586 75.8802 24.04C75.8644 24.0213 75.8422 24.0093 75.818 24.0062C75.795 23.9996 75.7705 23.9996 75.7475 24.0062C75.7422 24.0081 75.7344 24.0142 75.7288 24.0164C75.7205 24.0197 75.71 24.0272 75.7013 24.032C75.7053 24.0264 75.7142 24.0137 75.7169 24.0108C66.2731 29.5351 63.0711 39.7845 62.7767 44.8975L62.853 44.8837L67.8303 45.2005L70.6316 46.1969L73.3727 47.2647L76.2742 49.3362L79.0042 52.2155C79.0042 52.2155 79.9439 53.979 79.9574 54.0087C77.7786 52.713 74.6124 51.6689 71.5042 52.2089C85.0263 58.9609 81.3961 82.2125 62.6588 81.3339C60.9897 81.2658 59.3404 80.9479 57.7656 80.3906C57.3933 80.251 57.0251 80.1007 56.6614 79.9398C56.4492 79.8431 56.2373 79.7455 56.0278 79.6373C56.0353 79.6426 56.0456 79.6484 56.0533 79.6537C55.8697 79.5656 55.6874 79.4748 55.5064 79.3814C55.6822 79.4653 55.8475 79.5569 56.028 79.6373C51.4367 77.2675 47.6458 72.7886 47.1722 67.3497C47.1722 67.3497 48.9075 60.8912 59.5978 60.8912C60.7541 60.8912 64.0575 57.6703 64.1189 56.7361C64.1048 56.4311 57.5617 53.8315 55.0109 51.3212C53.648 49.9798 53.0008 49.3333 52.4277 48.8481C52.1167 48.5858 51.7916 48.3406 51.4539 48.1137C50.597 45.1196 50.5606 41.9501 51.3484 38.937C47.4866 40.6934 44.4827 43.4698 42.2989 45.9214H42.2816C40.7913 44.0361 40.8964 37.8165 40.9813 36.518C40.9634 36.4373 39.8695 37.0851 39.7261 37.1826C38.4112 38.1202 37.1818 39.1722 36.0522 40.3264C34.7671 41.6279 33.5928 43.0344 32.5416 44.5312C32.5411 44.5332 32.5406 44.5351 32.5398 44.537C32.5406 44.5351 32.5411 44.5331 32.5416 44.5311C30.1246 47.9519 28.41 51.8182 27.4972 55.9061C27.4792 55.9875 27.4641 56.0719 27.4464 56.1539C27.3758 56.4845 27.0577 58.162 27.0133 58.522C27.0098 58.5495 27.0166 58.4944 27.0133 58.522C26.7231 60.2556 26.538 62.005 26.4589 63.7609C26.4589 63.825 26.4548 63.8884 26.4548 63.9526C26.4548 84.6878 43.2864 101.497 64.0486 101.497C72.911 101.501 81.4898 98.3732 88.2701 92.6662C95.0505 86.9592 99.5963 79.04 101.105 70.3069C101.169 69.8262 101.22 69.3431 101.276 68.8584C102.023 62.4194 101.193 55.6515 98.8374 49.9922V49.9922ZM95.108 51.9203C95.1099 51.9337 95.1122 51.9475 95.1142 51.9609L95.1128 51.9569C95.1111 51.9439 95.1094 51.9323 95.108 51.9203V51.9203Z" fill="url(#paint12_linear_6_126)"/>
<path d="M64.1219 56.7378C64.1219 56.7378 63.9625 56.8045 63.6687 56.9051C62.9344 58.1462 60.3236 60.5145 59.325 60.5106C48.6347 60.4637 46.8719 66.8523 46.8719 66.8523C47.0669 69.0358 47.7851 71.1401 48.9656 72.9872C47.9674 71.2606 47.3566 69.3375 47.1756 67.3514C47.1756 67.3514 48.9109 60.8929 59.6014 60.8929C60.7577 60.8929 64.0609 57.672 64.1225 56.7378H64.1219Z" fill="url(#paint13_linear_6_126)"/>
<path d="M95.1175 51.9622L95.1161 51.9584C95.1142 51.9456 95.1128 51.9339 95.1109 51.922C95.1099 51.9101 95.1081 51.8983 95.1058 51.8866C95.1074 51.9075 95.1098 51.9283 95.1128 51.949C94.8605 51.3221 94.5913 50.702 94.3053 50.0897C94.2097 49.8844 94.107 49.6923 94.0084 49.4919C93.8209 49.1067 93.6334 48.7208 93.437 48.3523C93.3159 48.1248 93.1886 47.9091 93.0647 47.6876C92.883 47.3633 92.7028 47.0369 92.5155 46.7242C92.3781 46.4956 92.2363 46.2767 92.0967 46.0539C91.9141 45.763 91.732 45.4711 91.5447 45.1892C91.3966 44.9659 91.2447 44.7497 91.0938 44.5317C90.9073 44.2625 90.7209 43.993 90.5313 43.7305C90.3738 43.5137 90.2138 43.3019 90.0544 43.0898C89.8653 42.8369 89.674 42.5856 89.4805 42.3359C89.315 42.1241 89.1483 41.914 88.9805 41.7058C88.7866 41.464 88.5912 41.2234 88.3944 40.9841C88.2231 40.7769 88.0509 40.5705 87.8777 40.3648C87.7839 40.2533 87.6902 40.1387 87.5964 40.0275C87.637 40.0758 87.6763 40.1259 87.7166 40.1747C84.4594 36.3323 80.9244 32.7912 77.7675 27.8075C77.4694 27.3378 77.1719 26.8667 76.8819 26.37C76.7338 26.1166 76.5958 25.8575 76.468 25.5933C76.2553 25.1709 76.0822 24.7297 75.9508 24.2755C75.9442 24.2512 75.9323 24.2144 75.9281 24.1959C75.9153 24.1462 75.9073 24.1084 75.9073 24.1084C75.9081 24.084 75.8998 24.0601 75.884 24.0415C75.8682 24.0229 75.846 24.0108 75.8217 24.0076C75.7987 24.0013 75.7743 24.0013 75.7513 24.0076C75.7459 24.0095 75.738 24.0158 75.7322 24.0181C75.7264 24.0205 75.7138 24.0286 75.7048 24.0328C75.6222 24.0791 75.5456 24.1353 75.4767 24.2003C75.4584 24.2163 75.4403 24.2325 75.4223 24.2489C75.3175 24.3479 75.2183 24.4526 75.125 24.5625C75.1213 24.5667 75.1183 24.5691 75.1145 24.5733C75.1155 24.5723 75.1164 24.5723 75.1173 24.5714C72.865 27.2189 67.1133 38.7251 76.383 49.0456C67.7044 38.8355 73.1733 27.8012 75.5502 24.9106C75.6766 25.3 75.8314 25.6795 76.0133 26.0462C76.1414 26.3103 76.2795 26.5694 76.4272 26.823C76.7172 27.3201 77.0148 27.7917 77.3128 28.2605C83.1995 37.552 90.4075 41.8197 94.6586 52.4026C94.6558 52.3819 94.6535 52.361 94.6516 52.3401C94.6541 52.3518 94.6558 52.3637 94.6567 52.3756C94.6586 52.3875 94.66 52.3994 94.6619 52.412L94.6634 52.4159C98.2103 62.0206 96.278 71.787 93.4934 77.7551C91.9988 80.9249 89.98 83.8197 87.522 86.3176C90.1839 83.7193 92.36 80.666 93.9477 77.302C96.7322 71.3334 98.6642 61.567 95.1175 51.9622V51.9622Z" fill="url(#paint14_linear_6_126)"/>
<path d="M75.7044 24.0313C75.7086 24.0256 75.7173 24.013 75.72 24.01C67.213 28.9864 63.77 37.7717 62.9555 43.2031C63.8911 38.185 67.1077 30.5199 74.3164 25.6806C74.9097 24.7438 75.4325 24.1614 75.7044 24.0313V24.0313Z" fill="url(#paint15_linear_6_126)"/>
<path d="M85.0724 74.8167C85.0724 74.8167 85.0808 74.7974 85.0931 74.7678C85.4264 73.978 89.8917 62.8839 81.3691 55.0402C81.2048 54.8891 81.0117 54.7342 80.8047 54.5789C80.7281 54.5216 80.6531 54.4642 80.5703 54.4071C78.6305 53.046 75.2084 51.7014 71.8553 52.1555L71.8472 52.1564C71.7333 52.1721 71.6195 52.1896 71.5056 52.2091C84.8752 58.885 81.4764 81.6892 63.2877 81.3542C63.337 81.3566 63.3866 81.3605 63.4358 81.3625C81.8747 82.0841 85.5075 59.4736 72.6969 52.3849C75.4731 52.3577 78.1584 53.3714 79.8167 54.4408C79.9009 54.495 79.9783 54.5492 80.0569 54.6036C80.2698 54.7507 80.4689 54.8978 80.6389 55.0425C89.4628 62.5469 85.4352 73.8066 85.1331 74.6094C85.1269 74.626 85.1207 74.6425 85.1144 74.6591" fill="url(#paint16_linear_6_126)"/>
<path d="M50.1078 56.5594C56.2609 59.225 61.9719 57.5313 63.7016 56.8938C62.1078 57.4438 56.2187 59.1031 50.0078 56.1844C42.9422 52.8641 37.4109 55.9594 36.3641 56.6188L36.3141 56.65L36.2734 56.6766L36.2422 56.6969L36.2219 56.7094L36.2078 56.7188L36.2266 56.7594L36.2484 56.8078V56.8172L36.2812 56.8875C36.3344 57 36.4156 57.1609 36.5281 57.3563C37.3625 58.8328 39.8766 62.2984 45.1047 62.2984C44.4297 68.2531 47.4672 75.1656 54.8297 79.0016C47.7984 74.9391 44.8297 67.5953 45.6578 61.7375C40.2266 61.5938 37.7969 58.3375 37.1031 56.9578C39.0781 55.9109 44.0922 53.9531 50.1078 56.5594Z" fill="url(#paint17_linear_6_126)"/>
<path d="M51.4516 48.0945C51.3924 48.0598 51.3311 48.0242 51.2678 47.9876C51.3332 48.0314 51.3964 48.074 51.4573 48.1154C51.4553 48.1084 51.4531 48.1015 51.4516 48.0945V48.0945ZM51.413 47.9567C50.6004 45.0083 50.5793 41.8978 51.3519 38.9387C47.6909 40.6037 44.8023 43.185 42.6512 45.5376C44.6997 43.5423 47.3533 41.4012 50.5853 39.9342C50.3853 41.4687 50.213 44.6101 51.413 47.9567Z" fill="url(#paint18_linear_6_126)"/>
<path d="M27.7122 68.7812C27.7017 68.7454 27.6925 68.7095 27.6823 68.6736C27.3177 67.4152 27.025 66.1371 26.8058 64.8454C26.5189 63.5283 26.6105 61.6789 26.8058 60.0037C26.6606 60.8733 26.5697 61.757 26.462 63.7633C26.462 63.8273 26.4581 63.8908 26.4581 63.955C26.4581 80.3642 37 94.3125 51.6875 99.4192C38.9556 94.5434 29.5234 82.875 27.7122 68.7812Z" fill="url(#paint19_linear_6_126)"/>
<path d="M27.4113 64.9973C26.7528 61.9729 28.088 56.1417 28.1059 56.0598C29.0187 51.9719 30.7332 48.1056 33.1503 44.6848L33.1486 44.6908C33.1486 44.6889 33.1497 44.6868 33.1503 44.685C34.2016 43.1881 35.376 41.7816 36.6613 40.48C37.7908 39.3258 39.0202 38.2737 40.3352 37.3362C40.3873 37.3021 40.4402 37.2691 40.4938 37.2372C40.4808 40.0934 40.6428 44.9128 41.9661 46.4929H41.9834C42.1647 46.4836 47.6361 46.2422 50.4353 47.9495C50.7023 48.1114 50.9675 48.2762 51.2309 48.4439C51.5757 48.6616 51.9084 48.898 52.2275 49.152C52.8156 49.622 53.4822 50.2514 54.8856 51.5565C56.9169 53.4458 61.3475 55.3254 63.2606 56.2209C61.3967 55.282 56.9986 53.2759 55.0147 51.3236C53.6517 49.9822 53.0045 49.3356 52.4314 48.8504C52.1204 48.5881 51.7954 48.3429 51.4577 48.1161C51.1997 47.9414 50.94 47.7696 50.6784 47.6004C47.9366 45.8204 42.4834 45.9184 42.3034 45.9231H42.2859C40.9238 44.2 40.8945 38.8584 40.9644 36.9603C40.9672 36.8872 40.97 36.8197 40.9728 36.7572L40.9761 36.6901C40.977 36.6716 40.9779 36.653 40.9789 36.6345C40.9813 36.5936 40.9834 36.554 40.9858 36.5198C40.9847 36.515 40.9792 36.5131 40.9709 36.5133C40.9681 36.5133 40.9634 36.5147 40.9598 36.5151C40.9519 36.5163 40.944 36.5181 40.9363 36.5204C40.9302 36.5222 40.9227 36.5251 40.9156 36.5276C40.8949 36.5348 40.8746 36.543 40.8547 36.5522L40.8181 36.5687C40.7921 36.5808 40.7664 36.5933 40.7408 36.6062L40.6939 36.6298L40.6556 36.6498L40.5995 36.6792L40.5683 36.6962C40.2369 36.8745 39.8163 37.1265 39.7311 37.1845C38.4156 38.1219 37.1857 39.1739 36.0556 40.3281C34.7704 41.6296 33.5961 43.0362 32.5448 44.5331C32.5448 44.535 32.5438 44.537 32.5431 44.5389C32.5431 44.537 32.5442 44.535 32.5448 44.5329C30.1278 47.9538 28.4132 51.82 27.5005 55.9079C27.4823 55.9893 26.1472 61.8206 26.8058 64.8454C29.2745 79.4159 40.8958 91.0517 55.175 94.5036C41.1738 90.8733 29.8448 79.3612 27.4113 64.9973V64.9973Z" fill="url(#paint20_linear_6_126)"/>
<path d="M98.8405 49.9938C97.3989 46.5302 94.653 42.8246 92.2419 41.08L92.1755 41.0332C92.1008 40.9802 92.0264 40.9291 91.9523 40.8797C91.9242 40.861 91.8961 40.8424 91.868 40.8241C91.7977 40.7788 91.7278 40.7353 91.6584 40.6938C91.6316 40.6782 91.6045 40.6607 91.5777 40.645C91.4859 40.5915 91.3928 40.5401 91.2986 40.491C91.4002 40.6897 91.4978 40.8885 91.5955 41.0872C91.6557 41.2106 91.7155 41.3342 91.7748 41.458C93.598 45.2728 94.6744 49.028 95.1056 51.8869C95.1056 51.8932 95.108 51.9082 95.113 51.9494C96.4463 60.6463 92.0172 69.0714 85.0933 74.7681C85.0809 74.7977 85.0725 74.8171 85.0725 74.8171C76.4663 81.8171 68.0972 82.5792 62.4858 81.7519C68.0773 82.7963 76.8972 82.356 85.9809 74.9685L86.0017 74.9196C92.9255 69.2228 97.3547 60.7975 96.0214 52.1008C96.0186 52.08 96.0162 52.0592 96.0141 52.0383C95.6311 49.5005 94.7392 46.2563 93.2688 42.8914C94.9149 44.6352 96.2999 46.608 97.3806 48.7486C100.044 54.1799 101.246 60.7861 100.855 67.1574C100.825 67.6371 100.801 68.1149 100.764 68.5908C98.7223 86.1689 84.0506 100.285 65.4856 101.325C63.0077 101.465 60.5221 101.364 58.0638 101.024C60.0442 101.341 62.0467 101.5 64.0523 101.5C82.6461 101.5 98.0855 88.0177 101.108 70.3085C101.172 69.8278 101.223 69.3447 101.279 68.86C102.026 62.421 101.196 55.6532 98.8405 49.9938V49.9938ZM95.1173 51.9625L95.1161 51.9585L95.1111 51.9219C95.113 51.9353 95.1153 51.9491 95.1173 51.9625V51.9625Z" fill="url(#paint21_linear_6_126)"/>
<defs>
<filter id="filter0_i_6_126" x="12" y="11" width="104" height="104" filterUnits="userSpaceOnUse" color-interpolation-filters="sRGB">
<feFlood flood-opacity="0" result="BackgroundImageFix"/>
<feBlend mode="normal" in="SourceGraphic" in2="BackgroundImageFix" result="shape"/>
<feColorMatrix in="SourceAlpha" type="matrix" values="0 0 0 0 0 0 0 0 0 0 0 0 0 0 0 0 0 0 127 0" result="hardAlpha"/>
<feOffset dy="-4"/>
<feComposite in2="hardAlpha" operator="arithmetic" k2="-1" k3="1"/>
<feColorMatrix type="matrix" values="0 0 0 0 0.0666667 0 0 0 0 0.0666667 0 0 0 0 0.0666667 0 0 0 0.2 0"/>
<feBlend mode="normal" in2="shape" result="effect1_innerShadow_6_126"/>
</filter>
<linearGradient id="paint0_linear_6_126" x1="64" y1="11" x2="64" y2="115" gradientUnits="userSpaceOnUse">
<stop stop-color="#073072"/>
<stop offset="1" stop-color="#00B3F5"/>
</linearGradient>
<linearGradient id="paint1_linear_6_126" x1="64" y1="11" x2="64" y2="115" gradientUnits="userSpaceOnUse">
<stop stop-color="#712290" stop-opacity="0.2"/>
<stop offset="1" stop-color="#2D2D2D" stop-opacity="0.2"/>
<stop offset="1" stop-color="#F0F0F2" stop-opacity="0.2"/>
</linearGradient>
<radialGradient id="paint2_radial_6_126" cx="0" cy="0" r="1" gradientUnits="userSpaceOnUse" gradientTransform="translate(65.9957 53.9608) scale(21.9795 21.9709)">
<stop offset="0.1" stop-color="#00DDFF" stop-opacity="0.4"/>
<stop offset="0.9" stop-color="#7542E5" stop-opacity="0.25"/>
</radialGradient>
<radialGradient id="paint3_radial_6_126" cx="0" cy="0" r="1" gradientUnits="userSpaceOnUse" gradientTransform="translate(63.8849 64.104) scale(18.6826 18.6752)">
<stop offset="0.91" stop-color="#7542E5" stop-opacity="0"/>
<stop offset="1" stop-color="#00DDFF" stop-opacity="0.4"/>
</radialGradient>
<radialGradient id="paint4_radial_6_126" cx="0" cy="0" r="1" gradientUnits="userSpaceOnUse" gradientTransform="translate(78.498 32.5594) scale(78.1031 78.092)">
<stop stop-color="#80EBFF"/>
<stop offset="0.26" stop-color="#00DDFF"/>
<stop offset="0.53" stop-color="#0090ED"/>
<stop offset="0.86" stop-color="#0060DF"/>
</radialGradient>
<radialGradient id="paint5_radial_6_126" cx="0" cy="0" r="1" gradientUnits="userSpaceOnUse" gradientTransform="translate(55.1348 64.8944) scale(78.1031 78.092)">
<stop offset="0.3" stop-color="#321C64" stop-opacity="0.8"/>
<stop offset="0.37" stop-color="#212F83" stop-opacity="0.5"/>
<stop offset="0.48" stop-color="#0A47AC" stop-opacity="0.14"/>
<stop offset="0.53" stop-color="#0250BB" stop-opacity="0"/>
</radialGradient>
<radialGradient id="paint6_radial_6_126" cx="0" cy="0" r="1" gradientUnits="userSpaceOnUse" gradientTransform="translate(79.3656 6.99057) scale(124.007 123.989)">
<stop stop-color="#80EBFF"/>
<stop offset="0.47" stop-color="#00B3F4"/>
<stop offset="0.84" stop-color="#0060DF"/>
<stop offset="1" stop-color="#592ACB"/>
</radialGradient>
<linearGradient id="paint7_linear_6_126" x1="81.3883" y1="18.9252" x2="100.24" y2="77.2611" gradientUnits="userSpaceOnUse">
<stop stop-color="#AAF2FF"/>
<stop offset="0.29" stop-color="#00DDFF"/>
<stop offset="0.61" stop-color="#0090ED"/>
<stop offset="0.89" stop-color="#0250BB"/>
</linearGradient>
<linearGradient id="paint8_linear_6_126" x1="69.6276" y1="24.01" x2="81.7011" y2="59.3286" gradientUnits="userSpaceOnUse">
<stop stop-color="#AAF2FF"/>
<stop offset="0.29" stop-color="#00DDFF"/>
<stop offset="0.74" stop-color="#0090ED"/>
<stop offset="1" stop-color="#0250BB"/>
</linearGradient>
<radialGradient id="paint9_radial_6_126" cx="0" cy="0" r="1" gradientUnits="userSpaceOnUse" gradientTransform="translate(61.3446 29.3814) scale(27.4645 27.4602)">
<stop stop-color="#00DDFF"/>
<stop offset="0.82" stop-color="#0090ED"/>
</radialGradient>
<radialGradient id="paint10_radial_6_126" cx="0" cy="0" r="1" gradientUnits="userSpaceOnUse" gradientTransform="translate(73.6134 43.4409) scale(78.1403 78.1382)">
<stop offset="0.29" stop-color="#80EBFF"/>
<stop offset="1" stop-color="#00B3F4"/>
</radialGradient>
<radialGradient id="paint11_radial_6_126" cx="0" cy="0" r="1" gradientUnits="userSpaceOnUse" gradientTransform="translate(59.9292 39.185) scale(68.9063 68.8941)">
<stop offset="0.18" stop-color="#AAF2FF"/>
<stop offset="0.43" stop-color="#00DDFF"/>
<stop offset="0.69" stop-color="#0060DF"/>
</radialGradient>
<linearGradient id="paint12_linear_6_126" x1="91.0297" y1="35.6257" x2="39.8362" y2="87.4827" gradientUnits="userSpaceOnUse">
<stop offset="0.24" stop-color="#80EBFF" stop-opacity="0.5"/>
<stop offset="0.7" stop-color="#00DDFF" stop-opacity="0"/>
</linearGradient>
<linearGradient id="paint13_linear_6_126" x1="57.3948" y1="55.1129" x2="51.0748" y2="81.1322" gradientUnits="userSpaceOnUse">
<stop stop-color="#BFF3FF" stop-opacity="0.9"/>
<stop offset="1" stop-color="#80EBFF" stop-opacity="0.5"/>
</linearGradient>
<linearGradient id="paint14_linear_6_126" x1="84.4183" y1="22.7566" x2="79.9063" y2="110.428" gradientUnits="userSpaceOnUse">
<stop stop-color="#BFF3FF"/>
<stop offset="1" stop-color="#00DDFF" stop-opacity="0"/>
</linearGradient>
<linearGradient id="paint15_linear_6_126" x1="69.593" y1="23.2423" x2="68.1522" y2="51.4151" gradientUnits="userSpaceOnUse">
<stop stop-color="#BFF3FF"/>
<stop offset="1" stop-color="#AAF2FF" stop-opacity="0.5"/>
</linearGradient>
<linearGradient id="paint16_linear_6_126" x1="75.6208" y1="51.4793" x2="73.4074" y2="93.6483" gradientUnits="userSpaceOnUse">
<stop stop-color="#BFF3FF"/>
<stop offset="1" stop-color="#00DDFF" stop-opacity="0"/>
</linearGradient>
<linearGradient id="paint17_linear_6_126" x1="49.6797" y1="54.1881" x2="51.4033" y2="84.6237" gradientUnits="userSpaceOnUse">
<stop stop-color="#BFF3FF" stop-opacity="0.8"/>
<stop offset="1" stop-color="#80EBFF" stop-opacity="0.2"/>
</linearGradient>
<linearGradient id="paint18_linear_6_126" x1="52.9544" y1="36.8281" x2="44.2662" y2="50.365" gradientUnits="userSpaceOnUse">
<stop stop-color="#BFF3FF" stop-opacity="0.8"/>
<stop offset="1" stop-color="#80EBFF" stop-opacity="0.2"/>
</linearGradient>
<linearGradient id="paint19_linear_6_126" x1="39.5774" y1="59.6096" x2="36.5043" y2="113.9" gradientUnits="userSpaceOnUse">
<stop stop-color="#00DDFF" stop-opacity="0.4"/>
<stop offset="1" stop-color="#00DDFF" stop-opacity="0"/>
</linearGradient>
<linearGradient id="paint20_linear_6_126" x1="44.942" y1="29.5544" x2="44.942" y2="93.9237" gradientUnits="userSpaceOnUse">
<stop stop-color="#BFF3FF"/>
<stop offset="1" stop-color="#00DDFF" stop-opacity="0"/>
</linearGradient>
<linearGradient id="paint21_linear_6_126" x1="81.1089" y1="38.6607" x2="75.9812" y2="126.978" gradientUnits="userSpaceOnUse">
<stop stop-color="#BFF3FF" stop-opacity="0.8"/>
<stop offset="1" stop-color="#00DDFF" stop-opacity="0"/>
</linearGradient>
</defs>
</svg>
