<svg width="128" height="128" viewBox="0 0 128 128" fill="none" xmlns="http://www.w3.org/2000/svg">
<g filter="url(#filter0_i_4_599)">
<rect x="12" y="12" width="104" height="104" rx="24" fill="#F6BC30"/>
<rect x="12" y="12" width="104" height="104" rx="24" fill="url(#paint0_linear_4_599)"/>
</g>
<g style="mix-blend-mode:hard-light" filter="url(#filter1_dii_4_599)">
<rect x="28" y="36" width="72" height="56" rx="12" fill="#F0F0F2"/>
<rect x="28" y="36" width="72" height="56" rx="12" fill="url(#paint1_linear_4_599)"/>
</g>
<rect x="30" y="38" width="68" height="48" rx="11" stroke="#848484" stroke-opacity="0.5" stroke-width="2" stroke-miterlimit="3.8637" stroke-linecap="round" stroke-linejoin="round" stroke-dasharray="2 10"/>
<rect x="30" y="38" width="68" height="48" rx="11" stroke="#525252" stroke-opacity="0.5" stroke-width="2" stroke-miterlimit="3.8637" stroke-linecap="round" stroke-linejoin="round" stroke-dasharray="2 20"/>
<path d="M29 46L64 64L99 46" stroke="url(#paint2_linear_4_599)" stroke-opacity="0.2" stroke-width="2" stroke-linecap="round"/>
<path d="M29 81L64 63L99 81" stroke="#2D2D2D" stroke-opacity="0.05" stroke-linecap="round"/>
<path d="M47.736 81V79.25H48.801V79.4225H47.946V80.0375H48.6735V80.2075H47.946V81H47.736ZM49.059 81V79.76H49.249L49.2665 79.9975C49.3048 79.9158 49.3631 79.8508 49.4415 79.8025C49.5198 79.7542 49.6165 79.73 49.7315 79.73V79.95H49.674C49.6006 79.95 49.5331 79.9633 49.4715 79.99C49.4098 80.015 49.3606 80.0583 49.324 80.12C49.2873 80.1817 49.269 80.2667 49.269 80.375V81H49.059ZM50.4858 81.03C50.3691 81.03 50.2641 81.0033 50.1708 80.95C50.0775 80.8967 50.0033 80.8217 49.9483 80.725C49.895 80.6267 49.8683 80.5117 49.8683 80.38C49.8683 80.2483 49.8958 80.1342 49.9508 80.0375C50.0058 79.9392 50.08 79.8633 50.1733 79.81C50.2683 79.7567 50.3741 79.73 50.4908 79.73C50.6075 79.73 50.7125 79.7567 50.8058 79.81C50.8991 79.8633 50.9725 79.9392 51.0258 80.0375C51.0808 80.1342 51.1083 80.2483 51.1083 80.38C51.1083 80.5117 51.0808 80.6267 51.0258 80.725C50.9708 80.8217 50.8958 80.8967 50.8008 80.95C50.7075 81.0033 50.6025 81.03 50.4858 81.03ZM50.4858 80.85C50.5575 80.85 50.6241 80.8325 50.6858 80.7975C50.7475 80.7625 50.7975 80.71 50.8358 80.64C50.8741 80.57 50.8933 80.4833 50.8933 80.38C50.8933 80.2767 50.8741 80.19 50.8358 80.12C50.7991 80.05 50.75 79.9975 50.6883 79.9625C50.6266 79.9275 50.5608 79.91 50.4908 79.91C50.4191 79.91 50.3525 79.9275 50.2908 79.9625C50.2291 79.9975 50.1791 80.05 50.1408 80.12C50.1025 80.19 50.0833 80.2767 50.0833 80.38C50.0833 80.4833 50.1025 80.57 50.1408 80.64C50.1791 80.71 50.2283 80.7625 50.2883 80.7975C50.35 80.8325 50.4158 80.85 50.4858 80.85ZM51.4003 81V79.76H51.5903L51.6053 79.94C51.6453 79.8733 51.6986 79.8217 51.7653 79.785C51.8319 79.7483 51.9069 79.73 51.9903 79.73C52.0886 79.73 52.1728 79.75 52.2428 79.79C52.3144 79.83 52.3694 79.8908 52.4078 79.9725C52.4511 79.8975 52.5103 79.8383 52.5853 79.795C52.6619 79.7517 52.7444 79.73 52.8328 79.73C52.9811 79.73 53.0994 79.775 53.1878 79.865C53.2761 79.9533 53.3203 80.09 53.3203 80.275V81H53.1128V80.2975C53.1128 80.1692 53.0869 80.0725 53.0353 80.0075C52.9836 79.9425 52.9094 79.91 52.8128 79.91C52.7128 79.91 52.6294 79.9492 52.5628 80.0275C52.4978 80.1042 52.4653 80.2142 52.4653 80.3575V81H52.2553V80.2975C52.2553 80.1692 52.2294 80.0725 52.1778 80.0075C52.1261 79.9425 52.0519 79.91 51.9553 79.91C51.8569 79.91 51.7744 79.9492 51.7078 80.0275C51.6428 80.1042 51.6103 80.2142 51.6103 80.3575V81H51.4003ZM54.3107 81V79.25H54.5557L55.1857 80.47L55.8107 79.25H56.0582V81H55.8482V79.625L55.2632 80.75H55.1057L54.5207 79.6275V81H54.3107ZM56.5424 79.485C56.5008 79.485 56.4658 79.4717 56.4374 79.445C56.4108 79.4167 56.3974 79.3817 56.3974 79.34C56.3974 79.3 56.4108 79.2667 56.4374 79.24C56.4658 79.2133 56.5008 79.2 56.5424 79.2C56.5824 79.2 56.6166 79.2133 56.6449 79.24C56.6733 79.2667 56.6874 79.3 56.6874 79.34C56.6874 79.3817 56.6733 79.4167 56.6449 79.445C56.6166 79.4717 56.5824 79.485 56.5424 79.485ZM56.4374 81V79.76H56.6474V81H56.4374ZM57.0131 81V79.76H57.2031L57.2156 79.9825C57.2556 79.9042 57.3131 79.8425 57.3881 79.7975C57.4631 79.7525 57.5481 79.73 57.6431 79.73C57.7897 79.73 57.9064 79.775 57.9931 79.865C58.0814 79.9533 58.1256 80.09 58.1256 80.275V81H57.9156V80.2975C57.9156 80.0392 57.8089 79.91 57.5956 79.91C57.4889 79.91 57.3997 79.9492 57.3281 80.0275C57.2581 80.1042 57.2231 80.2142 57.2231 80.3575V81H57.0131ZM58.4437 81V79.76H58.6337L58.6462 79.9825C58.6862 79.9042 58.7437 79.8425 58.8187 79.7975C58.8937 79.7525 58.9787 79.73 59.0737 79.73C59.2204 79.73 59.3371 79.775 59.4237 79.865C59.5121 79.9533 59.5562 80.09 59.5562 80.275V81H59.3462V80.2975C59.3462 80.0392 59.2396 79.91 59.0262 79.91C58.9196 79.91 58.8304 79.9492 58.7587 80.0275C58.6887 80.1042 58.6537 80.2142 58.6537 80.3575V81H58.4437ZM60.4319 81.03C60.3136 81.03 60.2086 81.0033 60.1169 80.95C60.0252 80.895 59.9527 80.8192 59.8994 80.7225C59.8477 80.6258 59.8219 80.5117 59.8219 80.38C59.8219 80.25 59.8477 80.1367 59.8994 80.04C59.9511 79.9417 60.0227 79.8658 60.1144 79.8125C60.2077 79.7575 60.3152 79.73 60.4369 79.73C60.5569 79.73 60.6602 79.7575 60.7469 79.8125C60.8352 79.8658 60.9027 79.9367 60.9494 80.025C60.9961 80.1133 61.0194 80.2083 61.0194 80.31C61.0194 80.3283 61.0186 80.3467 61.0169 80.365C61.0169 80.3833 61.0169 80.4042 61.0169 80.4275H60.0294C60.0344 80.5225 60.0561 80.6017 60.0944 80.665C60.1344 80.7267 60.1836 80.7733 60.2419 80.805C60.3019 80.8367 60.3652 80.8525 60.4319 80.8525C60.5186 80.8525 60.5911 80.8325 60.6494 80.7925C60.7077 80.7525 60.7502 80.6983 60.7769 80.63H60.9844C60.9511 80.745 60.8869 80.8408 60.7919 80.9175C60.6986 80.9925 60.5786 81.03 60.4319 81.03ZM60.4319 79.9075C60.3319 79.9075 60.2427 79.9383 60.1644 80C60.0877 80.06 60.0436 80.1483 60.0319 80.265H60.8119C60.8069 80.1533 60.7686 80.0658 60.6969 80.0025C60.6252 79.9392 60.5369 79.9075 60.4319 79.9075ZM61.7102 81.03C61.6069 81.03 61.5211 81.0125 61.4527 80.9775C61.3844 80.9425 61.3336 80.8958 61.3002 80.8375C61.2669 80.7792 61.2502 80.7158 61.2502 80.6475C61.2502 80.5208 61.2986 80.4233 61.3952 80.355C61.4919 80.2867 61.6236 80.2525 61.7902 80.2525H62.1252V80.2375C62.1252 80.1292 62.0969 80.0475 62.0402 79.9925C61.9836 79.9358 61.9077 79.9075 61.8127 79.9075C61.7311 79.9075 61.6602 79.9283 61.6002 79.97C61.5419 80.01 61.5052 80.0692 61.4902 80.1475H61.2752C61.2836 80.0575 61.3136 79.9817 61.3652 79.92C61.4186 79.8583 61.4844 79.8117 61.5627 79.78C61.6411 79.7467 61.7244 79.73 61.8127 79.73C61.9861 79.73 62.1161 79.7767 62.2027 79.87C62.2911 79.9617 62.3352 80.0842 62.3352 80.2375V81H62.1477L62.1352 80.7775C62.1002 80.8475 62.0486 80.9075 61.9802 80.9575C61.9136 81.0058 61.8236 81.03 61.7102 81.03ZM61.7427 80.8525C61.8227 80.8525 61.8911 80.8317 61.9477 80.79C62.0061 80.7483 62.0502 80.6942 62.0802 80.6275C62.1102 80.5608 62.1252 80.4908 62.1252 80.4175V80.415H61.8077C61.6844 80.415 61.5969 80.4367 61.5452 80.48C61.4952 80.5217 61.4702 80.5742 61.4702 80.6375C61.4702 80.7025 61.4936 80.755 61.5402 80.795C61.5886 80.8333 61.6561 80.8525 61.7427 80.8525ZM62.6503 81.55V79.76H62.8403L62.8603 79.965C62.9003 79.905 62.9569 79.8508 63.0303 79.8025C63.1053 79.7542 63.2003 79.73 63.3153 79.73C63.4386 79.73 63.5461 79.7583 63.6378 79.815C63.7294 79.8717 63.8003 79.9492 63.8503 80.0475C63.9019 80.1458 63.9278 80.2575 63.9278 80.3825C63.9278 80.5075 63.9019 80.6192 63.8503 80.7175C63.8003 80.8142 63.7286 80.8908 63.6353 80.9475C63.5436 81.0025 63.4361 81.03 63.3128 81.03C63.2111 81.03 63.1203 81.0092 63.0403 80.9675C62.9619 80.9258 62.9019 80.8675 62.8603 80.7925V81.55H62.6503ZM63.2903 80.8475C63.3736 80.8475 63.4469 80.8283 63.5103 80.79C63.5736 80.75 63.6236 80.695 63.6603 80.625C63.6969 80.555 63.7153 80.4733 63.7153 80.38C63.7153 80.2867 63.6969 80.205 63.6603 80.135C63.6236 80.065 63.5736 80.0108 63.5103 79.9725C63.4469 79.9325 63.3736 79.9125 63.2903 79.9125C63.2069 79.9125 63.1336 79.9325 63.0703 79.9725C63.0069 80.0108 62.9569 80.065 62.9203 80.135C62.8836 80.205 62.8653 80.2867 62.8653 80.38C62.8653 80.4733 62.8836 80.555 62.9203 80.625C62.9569 80.695 63.0069 80.75 63.0703 80.79C63.1336 80.8283 63.2069 80.8475 63.2903 80.8475ZM64.7851 81.03C64.6684 81.03 64.5634 81.0033 64.4701 80.95C64.3768 80.8967 64.3026 80.8217 64.2476 80.725C64.1943 80.6267 64.1676 80.5117 64.1676 80.38C64.1676 80.2483 64.1951 80.1342 64.2501 80.0375C64.3051 79.9392 64.3793 79.8633 64.4726 79.81C64.5676 79.7567 64.6734 79.73 64.7901 79.73C64.9068 79.73 65.0118 79.7567 65.1051 79.81C65.1984 79.8633 65.2718 79.9392 65.3251 80.0375C65.3801 80.1342 65.4076 80.2483 65.4076 80.38C65.4076 80.5117 65.3801 80.6267 65.3251 80.725C65.2701 80.8217 65.1951 80.8967 65.1001 80.95C65.0068 81.0033 64.9018 81.03 64.7851 81.03ZM64.7851 80.85C64.8568 80.85 64.9234 80.8325 64.9851 80.7975C65.0468 80.7625 65.0968 80.71 65.1351 80.64C65.1734 80.57 65.1926 80.4833 65.1926 80.38C65.1926 80.2767 65.1734 80.19 65.1351 80.12C65.0984 80.05 65.0493 79.9975 64.9876 79.9625C64.9259 79.9275 64.8601 79.91 64.7901 79.91C64.7184 79.91 64.6518 79.9275 64.5901 79.9625C64.5284 79.9975 64.4784 80.05 64.4401 80.12C64.4018 80.19 64.3826 80.2767 64.3826 80.38C64.3826 80.4833 64.4018 80.57 64.4401 80.64C64.4784 80.71 64.5276 80.7625 64.5876 80.7975C64.6493 80.8325 64.7151 80.85 64.7851 80.85ZM65.6996 81V79.2H65.9096V81H65.6996ZM66.3813 79.485C66.3396 79.485 66.3046 79.4717 66.2763 79.445C66.2496 79.4167 66.2363 79.3817 66.2363 79.34C66.2363 79.3 66.2496 79.2667 66.2763 79.24C66.3046 79.2133 66.3396 79.2 66.3813 79.2C66.4213 79.2 66.4555 79.2133 66.4838 79.24C66.5121 79.2667 66.5263 79.3 66.5263 79.34C66.5263 79.3817 66.5121 79.4167 66.4838 79.445C66.4555 79.4717 66.4213 79.485 66.3813 79.485ZM66.2763 81V79.76H66.4863V81H66.2763ZM67.3269 81.03C67.1786 81.03 67.0553 80.9925 66.9569 80.9175C66.8586 80.8425 66.8011 80.7408 66.7844 80.6125H66.9994C67.0128 80.6775 67.0469 80.7342 67.1019 80.7825C67.1586 80.8292 67.2344 80.8525 67.3294 80.8525C67.4178 80.8525 67.4828 80.8342 67.5244 80.7975C67.5661 80.7592 67.5869 80.7142 67.5869 80.6625C67.5869 80.5875 67.5594 80.5375 67.5044 80.5125C67.4511 80.4875 67.3753 80.465 67.2769 80.445C67.2103 80.4317 67.1436 80.4125 67.0769 80.3875C67.0103 80.3625 66.9544 80.3275 66.9094 80.2825C66.8644 80.2358 66.8419 80.175 66.8419 80.1C66.8419 79.9917 66.8819 79.9033 66.9619 79.835C67.0436 79.765 67.1536 79.73 67.2919 79.73C67.4236 79.73 67.5311 79.7633 67.6144 79.83C67.6994 79.895 67.7486 79.9883 67.7619 80.11H67.5544C67.5461 80.0467 67.5186 79.9975 67.4719 79.9625C67.4269 79.9258 67.3661 79.9075 67.2894 79.9075C67.2144 79.9075 67.1561 79.9233 67.1144 79.955C67.0744 79.9867 67.0544 80.0283 67.0544 80.08C67.0544 80.13 67.0803 80.1692 67.1319 80.1975C67.1853 80.2258 67.2569 80.25 67.3469 80.27C67.4236 80.2867 67.4961 80.3075 67.5644 80.3325C67.6344 80.3558 67.6911 80.3917 67.7344 80.44C67.7794 80.4867 67.8019 80.555 67.8019 80.645C67.8036 80.7567 67.7611 80.8492 67.6744 80.9225C67.5894 80.9942 67.4736 81.03 67.3269 81.03ZM67.9344 81.2975L68.0794 80.745H68.2969L68.0794 81.2975H67.9344ZM69.5804 81.0025L69.1004 79.25H69.3254L69.7029 80.7525L70.1329 79.25H70.3654L70.7829 80.7525L71.1654 79.25H71.3904L70.9004 81H70.6604L70.2429 79.555L69.8154 81L69.5804 81.0025ZM71.7524 79.485C71.7107 79.485 71.6757 79.4717 71.6474 79.445C71.6207 79.4167 71.6074 79.3817 71.6074 79.34C71.6074 79.3 71.6207 79.2667 71.6474 79.24C71.6757 79.2133 71.7107 79.2 71.7524 79.2C71.7924 79.2 71.8266 79.2133 71.8549 79.24C71.8832 79.2667 71.8974 79.3 71.8974 79.34C71.8974 79.3817 71.8832 79.4167 71.8549 79.445C71.8266 79.4717 71.7924 79.485 71.7524 79.485ZM71.6474 81V79.76H71.8574V81H71.6474ZM72.713 81C72.5997 81 72.5105 80.9725 72.4455 80.9175C72.3805 80.8625 72.348 80.7633 72.348 80.62V79.9375H72.133V79.76H72.348L72.3755 79.4625H72.558V79.76H72.923V79.9375H72.558V80.62C72.558 80.6983 72.5739 80.7517 72.6055 80.78C72.6372 80.8067 72.693 80.82 72.773 80.82H72.903V81H72.713ZM73.1898 81V79.2H73.3998V79.9725C73.4415 79.8958 73.5007 79.8367 73.5773 79.795C73.654 79.7517 73.7373 79.73 73.8273 79.73C73.9707 79.73 74.0857 79.775 74.1723 79.865C74.259 79.9533 74.3023 80.09 74.3023 80.275V81H74.0948V80.2975C74.0948 80.0392 73.9907 79.91 73.7823 79.91C73.674 79.91 73.5832 79.9492 73.5098 80.0275C73.4365 80.1042 73.3998 80.2142 73.3998 80.3575V81H73.1898ZM75.2946 81V79.25H75.5046V80.8325H76.3196V81H75.2946ZM77.1069 81.03C76.9902 81.03 76.8852 81.0033 76.7919 80.95C76.6986 80.8967 76.6244 80.8217 76.5694 80.725C76.5161 80.6267 76.4894 80.5117 76.4894 80.38C76.4894 80.2483 76.5169 80.1342 76.5719 80.0375C76.6269 79.9392 76.7011 79.8633 76.7944 79.81C76.8894 79.7567 76.9952 79.73 77.1119 79.73C77.2286 79.73 77.3336 79.7567 77.4269 79.81C77.5202 79.8633 77.5936 79.9392 77.6469 80.0375C77.7019 80.1342 77.7294 80.2483 77.7294 80.38C77.7294 80.5117 77.7019 80.6267 77.6469 80.725C77.5919 80.8217 77.5169 80.8967 77.4219 80.95C77.3286 81.0033 77.2236 81.03 77.1069 81.03ZM77.1069 80.85C77.1786 80.85 77.2452 80.8325 77.3069 80.7975C77.3686 80.7625 77.4186 80.71 77.4569 80.64C77.4952 80.57 77.5144 80.4833 77.5144 80.38C77.5144 80.2767 77.4952 80.19 77.4569 80.12C77.4202 80.05 77.3711 79.9975 77.3094 79.9625C77.2477 79.9275 77.1819 79.91 77.1119 79.91C77.0402 79.91 76.9736 79.9275 76.9119 79.9625C76.8502 79.9975 76.8002 80.05 76.7619 80.12C76.7236 80.19 76.7044 80.2767 76.7044 80.38C76.7044 80.4833 76.7236 80.57 76.7619 80.64C76.8002 80.71 76.8494 80.7625 76.9094 80.7975C76.9711 80.8325 77.0369 80.85 77.1069 80.85ZM78.3154 81L77.8454 79.76H78.0654L78.4379 80.7975L78.8129 79.76H79.0279L78.5579 81H78.3154ZM79.7556 81.03C79.6373 81.03 79.5323 81.0033 79.4406 80.95C79.349 80.895 79.2765 80.8192 79.2231 80.7225C79.1715 80.6258 79.1456 80.5117 79.1456 80.38C79.1456 80.25 79.1715 80.1367 79.2231 80.04C79.2748 79.9417 79.3465 79.8658 79.4381 79.8125C79.5315 79.7575 79.639 79.73 79.7606 79.73C79.8806 79.73 79.984 79.7575 80.0706 79.8125C80.159 79.8658 80.2265 79.9367 80.2731 80.025C80.3198 80.1133 80.3431 80.2083 80.3431 80.31C80.3431 80.3283 80.3423 80.3467 80.3406 80.365C80.3406 80.3833 80.3406 80.4042 80.3406 80.4275H79.3531C79.3581 80.5225 79.3798 80.6017 79.4181 80.665C79.4581 80.7267 79.5073 80.7733 79.5656 80.805C79.6256 80.8367 79.689 80.8525 79.7556 80.8525C79.8423 80.8525 79.9148 80.8325 79.9731 80.7925C80.0315 80.7525 80.074 80.6983 80.1006 80.63H80.3081C80.2748 80.745 80.2106 80.8408 80.1156 80.9175C80.0223 80.9925 79.9023 81.03 79.7556 81.03ZM79.7556 79.9075C79.6556 79.9075 79.5665 79.9383 79.4881 80C79.4115 80.06 79.3673 80.1483 79.3556 80.265H80.1356C80.1306 80.1533 80.0923 80.0658 80.0206 80.0025C79.949 79.9392 79.8606 79.9075 79.7556 79.9075Z" fill="black" fill-opacity="0.35"/>
<defs>
<filter id="filter0_i_4_599" x="12" y="12" width="104" height="104" filterUnits="userSpaceOnUse" color-interpolation-filters="sRGB">
<feFlood flood-opacity="0" result="BackgroundImageFix"/>
<feBlend mode="normal" in="SourceGraphic" in2="BackgroundImageFix" result="shape"/>
<feColorMatrix in="SourceAlpha" type="matrix" values="0 0 0 0 0 0 0 0 0 0 0 0 0 0 0 0 0 0 127 0" result="hardAlpha"/>
<feOffset dy="-4"/>
<feComposite in2="hardAlpha" operator="arithmetic" k2="-1" k3="1"/>
<feColorMatrix type="matrix" values="0 0 0 0 0.176471 0 0 0 0 0.176471 0 0 0 0 0.176471 0 0 0 0.1 0"/>
<feBlend mode="normal" in2="shape" result="effect1_innerShadow_4_599"/>
</filter>
<filter id="filter1_dii_4_599" x="24" y="32" width="80" height="68" filterUnits="userSpaceOnUse" color-interpolation-filters="sRGB">
<feFlood flood-opacity="0" result="BackgroundImageFix"/>
<feColorMatrix in="SourceAlpha" type="matrix" values="0 0 0 0 0 0 0 0 0 0 0 0 0 0 0 0 0 0 127 0" result="hardAlpha"/>
<feOffset dy="4"/>
<feGaussianBlur stdDeviation="2"/>
<feComposite in2="hardAlpha" operator="out"/>
<feColorMatrix type="matrix" values="0 0 0 0 0 0 0 0 0 0 0 0 0 0 0 0 0 0 0.25 0"/>
<feBlend mode="normal" in2="BackgroundImageFix" result="effect1_dropShadow_4_599"/>
<feBlend mode="normal" in="SourceGraphic" in2="effect1_dropShadow_4_599" result="shape"/>
<feColorMatrix in="SourceAlpha" type="matrix" values="0 0 0 0 0 0 0 0 0 0 0 0 0 0 0 0 0 0 127 0" result="hardAlpha"/>
<feOffset dy="-4"/>
<feGaussianBlur stdDeviation="2"/>
<feComposite in2="hardAlpha" operator="arithmetic" k2="-1" k3="1"/>
<feColorMatrix type="matrix" values="0 0 0 0 0.176471 0 0 0 0 0.176471 0 0 0 0 0.176471 0 0 0 0.25 0"/>
<feBlend mode="normal" in2="shape" result="effect2_innerShadow_4_599"/>
<feColorMatrix in="SourceAlpha" type="matrix" values="0 0 0 0 0 0 0 0 0 0 0 0 0 0 0 0 0 0 127 0" result="hardAlpha"/>
<feOffset dy="4"/>
<feGaussianBlur stdDeviation="2"/>
<feComposite in2="hardAlpha" operator="arithmetic" k2="-1" k3="1"/>
<feColorMatrix type="matrix" values="0 0 0 0 0.941176 0 0 0 0 0.941176 0 0 0 0 0.94902 0 0 0 0.2 0"/>
<feBlend mode="normal" in2="effect2_innerShadow_4_599" result="effect3_innerShadow_4_599"/>
</filter>
<linearGradient id="paint0_linear_4_599" x1="64" y1="12" x2="64" y2="116" gradientUnits="userSpaceOnUse">
<stop stop-color="#2D2D2D" stop-opacity="0"/>
<stop offset="1" stop-color="#2D2D2D" stop-opacity="0.2"/>
</linearGradient>
<linearGradient id="paint1_linear_4_599" x1="64" y1="36" x2="64" y2="92" gradientUnits="userSpaceOnUse">
<stop stop-color="#2D2D2D" stop-opacity="0"/>
<stop offset="1" stop-color="#2D2D2D" stop-opacity="0.2"/>
</linearGradient>
<linearGradient id="paint2_linear_4_599" x1="64" y1="39" x2="64" y2="64" gradientUnits="userSpaceOnUse">
<stop stop-color="#2D2D2D"/>
<stop offset="1" stop-color="#2D2D2D" stop-opacity="0.3"/>
</linearGradient>
</defs>
</svg>
