<svg width="128" height="128" viewBox="0 0 128 128" fill="none" xmlns="http://www.w3.org/2000/svg">
<g filter="url(#filter0_i_6_97)">
<rect x="12" y="11" width="104" height="104" rx="24" fill="url(#paint0_linear_6_97)"/>
<rect x="12" y="11" width="104" height="104" rx="24" fill="url(#paint1_linear_6_97)"/>
</g>
<path d="M98.7986 48.9926C97.1666 45.067 93.8611 40.8289 91.2655 39.4894C93.378 43.6308 94.6006 47.7851 95.0678 50.8856C95.0678 50.8917 95.0702 50.9069 95.0752 50.9481C90.8291 40.3648 83.6292 36.0973 77.75 26.8054C77.4531 26.3356 77.1555 25.8645 76.8655 25.3679C76.7178 25.1144 76.5799 24.8552 76.452 24.5911C76.2078 24.1195 76.0194 23.621 75.8906 23.1058C75.8915 23.0814 75.8833 23.0575 75.8675 23.0389C75.8517 23.0203 75.8295 23.0082 75.8053 23.0051C75.7823 22.9985 75.7579 22.9985 75.7348 23.0051C75.7295 23.007 75.7217 23.0131 75.7161 23.0153C75.7078 23.0186 75.6973 23.0261 75.6886 23.0309C75.6928 23.0253 75.7016 23.0126 75.7042 23.0097C66.2714 28.534 63.0714 38.7536 62.7773 43.8665C59.0106 44.1255 55.4092 45.5133 52.4427 47.849C52.1321 47.5867 51.8074 47.3415 51.47 47.1147C50.6141 44.1203 50.5777 40.951 51.3647 37.9378C47.5072 39.6942 44.5069 42.4706 42.3256 44.9222H42.3083C40.8197 43.0367 40.9247 36.817 41.0095 35.5184C40.9917 35.4379 39.8991 36.0856 39.7559 36.1833C38.4424 37.1209 37.2143 38.1729 36.0862 39.327C34.8025 40.6288 33.6296 42.0354 32.5797 43.5322C32.5797 43.534 32.5786 43.5362 32.578 43.5381C32.578 43.5361 32.5791 43.534 32.5797 43.5322C30.1651 46.954 28.4525 50.8204 27.5411 54.9079C27.5231 54.9894 27.508 55.0737 27.4905 55.1558C27.4198 55.4864 27.1655 57.1401 27.1209 57.4995C27.1175 57.5272 27.1159 57.5537 27.1127 57.5814C26.7838 59.2912 26.5801 61.0227 26.5033 62.7622C26.5033 62.8262 26.4994 62.8897 26.4994 62.9539C26.5 83.6903 43.3125 100.5 64.0506 100.5C82.6233 100.5 98.0444 87.0175 101.063 69.3078C101.127 68.8272 101.178 68.344 101.234 67.8592C101.98 61.4201 101.151 54.6522 98.7986 48.9926ZM55.5181 78.3823C55.6937 78.4662 55.8587 78.5579 56.0391 78.6384C56.0466 78.6436 56.0569 78.6494 56.0645 78.654C55.881 78.5663 55.6988 78.4757 55.5181 78.3823V78.3823ZM95.0781 50.9573L95.0731 50.9209C95.075 50.9342 95.0773 50.9481 95.0794 50.9614L95.0781 50.9573Z" fill="url(#paint2_linear_6_97)"/>
<path d="M98.7986 48.9927C97.1666 45.067 93.8611 40.8289 91.2655 39.4894C93.378 43.6308 94.6006 47.7852 95.0678 50.8856C95.0678 50.8766 95.0695 50.8931 95.0734 50.9209C95.0753 50.9342 95.0777 50.9481 95.0797 50.9614C98.6227 60.5661 96.6925 70.333 93.9111 76.3013C89.6081 85.5356 79.19 94.9997 62.8836 94.5381C45.2656 94.0392 29.7447 80.9669 26.8473 63.8453C26.3194 61.1453 26.8473 59.7744 27.113 57.5822C26.7894 59.2722 26.6661 59.7603 26.5036 62.763C26.5036 62.827 26.4997 62.8905 26.4997 62.9547C26.5 83.6903 43.3125 100.5 64.0506 100.5C82.6233 100.5 98.0444 87.0175 101.063 69.3078C101.127 68.8272 101.178 68.3441 101.234 67.8592C101.98 61.4202 101.151 54.6522 98.7986 48.9927Z" fill="url(#paint3_radial_6_97)"/>
<path d="M98.7986 48.9927C97.1666 45.067 93.8611 40.8289 91.2655 39.4894C93.378 43.6308 94.6006 47.7852 95.0678 50.8856C95.0678 50.8766 95.0695 50.8931 95.0734 50.9209C95.0753 50.9342 95.0777 50.9481 95.0797 50.9614C98.6227 60.5661 96.6925 70.333 93.9111 76.3013C89.6081 85.5356 79.19 94.9997 62.8836 94.5381C45.2656 94.0392 29.7447 80.9669 26.8473 63.8453C26.3194 61.1453 26.8473 59.7744 27.113 57.5822C26.7894 59.2722 26.6661 59.7603 26.5036 62.763C26.5036 62.827 26.4997 62.8905 26.4997 62.9547C26.5 83.6903 43.3125 100.5 64.0506 100.5C82.6233 100.5 98.0444 87.0175 101.063 69.3078C101.127 68.8272 101.178 68.3441 101.234 67.8592C101.98 61.4202 101.151 54.6522 98.7986 48.9927Z" fill="url(#paint4_radial_6_97)"/>
<path d="M80.5503 53.4062C80.6322 53.4637 80.7066 53.5209 80.7836 53.5781C79.8412 51.9055 78.6677 50.3742 77.2977 49.0293C65.625 37.3581 74.2369 23.7228 75.6892 23.0303C75.6934 23.0247 75.7022 23.012 75.7048 23.009C66.272 28.5334 63.072 38.7529 62.778 43.8659C63.2155 43.8356 63.6517 43.7989 64.097 43.7989C71.1363 43.7989 77.2672 47.6692 80.5503 53.4062V53.4062Z" fill="url(#paint5_radial_6_97)"/>
<path d="M64.1206 55.7366C64.0592 56.6706 60.7591 59.8917 59.605 59.8917C48.927 59.8917 47.1938 66.3503 47.1938 66.3503C47.6667 71.7894 51.4533 76.2683 56.0392 78.6383C56.2484 78.7464 56.4602 78.8441 56.672 78.9406C57.0353 79.1015 57.4031 79.2519 57.775 79.3916C59.3474 79.9483 60.9944 80.2659 62.6611 80.3339C81.3767 81.2117 85.0027 57.9599 71.4963 51.2077C74.9552 50.6061 78.5455 51.9972 80.5505 53.4056C77.2673 47.6691 71.1364 43.7988 64.0973 43.7988C63.652 43.7988 63.2159 43.8355 62.7783 43.8658C59.0115 44.1248 55.4101 45.5126 52.4436 47.8483C53.0161 48.3327 53.6623 48.9802 55.0239 50.3214C57.5711 52.8319 64.1067 55.4316 64.1206 55.7366V55.7366Z" fill="url(#paint6_radial_6_97)"/>
<path d="M64.1206 55.7366C64.0592 56.6706 60.7591 59.8917 59.605 59.8917C48.927 59.8917 47.1938 66.3503 47.1938 66.3503C47.6667 71.7894 51.4533 76.2683 56.0392 78.6383C56.2484 78.7464 56.4602 78.8441 56.672 78.9406C57.0353 79.1015 57.4031 79.2519 57.775 79.3916C59.3474 79.9483 60.9944 80.2659 62.6611 80.3339C81.3767 81.2117 85.0027 57.9599 71.4963 51.2077C74.9552 50.6061 78.5455 51.9972 80.5505 53.4056C77.2673 47.6691 71.1364 43.7988 64.0973 43.7988C63.652 43.7988 63.2159 43.8355 62.7783 43.8658C59.0115 44.1248 55.4101 45.5126 52.4436 47.8483C53.0161 48.3327 53.6623 48.9802 55.0239 50.3214C57.5711 52.8319 64.1067 55.4316 64.1206 55.7366V55.7366Z" fill="url(#paint7_radial_6_97)"/>
<path d="M50.692 46.5994C50.9536 46.7681 51.213 46.9399 51.4703 47.115C50.6144 44.1206 50.5781 40.9514 51.365 37.9381C47.5075 39.6945 44.5072 42.4709 42.3259 44.9225C42.5064 44.9173 47.9531 44.8194 50.692 46.5994V46.5994Z" fill="url(#paint8_radial_6_97)"/>
<path d="M26.8473 63.8453C29.7447 80.9669 45.2656 94.0392 62.8836 94.5381C79.19 94.9997 89.6081 85.535 93.9111 76.3013C96.6923 70.3325 98.6227 60.5669 95.0797 50.9614L95.0784 50.9574L95.0734 50.921C95.0695 50.8931 95.0672 50.8766 95.0678 50.8856C95.0678 50.8917 95.0702 50.9069 95.0752 50.9481C96.407 59.6452 91.983 68.0706 85.0672 73.7675L85.0464 73.8164C71.5706 84.7888 58.6755 80.4364 56.0645 78.6549C55.881 78.5666 55.6987 78.4758 55.5177 78.3825C47.6611 74.628 44.4155 67.4703 45.1114 61.3319C38.4775 61.3319 36.2155 55.7367 36.2155 55.7367C36.2155 55.7367 42.1716 51.49 50.0214 55.1835C57.2917 58.6042 64.1195 55.7371 64.1203 55.7367C64.1064 55.4317 57.5708 52.8321 55.023 50.3217C53.6616 48.9805 53.0152 48.3338 52.4427 47.8486C52.1321 47.5863 51.8074 47.3411 51.47 47.1142C51.2124 46.9396 50.953 46.7677 50.6917 46.5986C47.953 44.8186 42.5061 44.9166 42.3256 44.9213H42.3083C40.8197 43.0358 40.9247 36.8161 41.0095 35.5175C40.9917 35.4371 39.8991 36.0847 39.7559 36.1824C38.4424 37.12 37.2143 38.172 36.0863 39.3261C34.8025 40.6282 33.6296 42.0351 32.5797 43.5322C32.5797 43.5341 32.5786 43.5363 32.578 43.5381C32.578 43.5361 32.5791 43.5341 32.5797 43.5322C30.1651 46.954 28.4525 50.8204 27.5411 54.908C27.5231 54.9894 26.1895 60.8208 26.8473 63.8453V63.8453Z" fill="url(#paint9_radial_6_97)"/>
<path d="M77.2977 49.0292C78.6677 50.3741 79.8412 51.9054 80.7836 53.578C80.9903 53.7333 81.1834 53.8881 81.3473 54.0392C89.8602 61.8829 85.3998 72.9767 85.0672 73.7673C91.983 68.0704 96.407 59.645 95.0752 50.9479C90.8291 40.3648 83.6292 36.0973 77.75 26.8054C77.4531 26.3356 77.1555 25.8645 76.8655 25.3679C76.7178 25.1144 76.5799 24.8552 76.452 24.5911C76.2078 24.1195 76.0194 23.621 75.8906 23.1058C75.8915 23.0814 75.8833 23.0575 75.8675 23.0389C75.8517 23.0203 75.8295 23.0082 75.8053 23.0051C75.7823 22.9985 75.7579 22.9985 75.7348 23.0051C75.7295 23.007 75.7217 23.0131 75.7161 23.0153C75.7078 23.0186 75.6973 23.0261 75.6886 23.0309C74.2369 23.7228 65.625 37.3581 77.2977 49.0292V49.0292Z" fill="url(#paint10_radial_6_97)"/>
<path d="M81.3473 54.0392C81.1834 53.8881 80.9903 53.7333 80.7836 53.578C80.7072 53.5205 80.6322 53.4633 80.5503 53.4061C78.5453 51.9976 74.955 50.6065 71.4961 51.2081C85.0025 57.9603 81.3766 81.2122 62.6609 80.3344C60.9943 80.2663 59.3473 79.9487 57.7748 79.392C57.403 79.2522 57.0352 79.1018 56.6719 78.9411C56.46 78.8445 56.2483 78.7469 56.0391 78.6387C56.0466 78.6439 56.0569 78.6497 56.0645 78.6544C58.6755 80.4356 71.5706 84.7883 85.0464 73.8159L85.0672 73.767C85.3998 72.9773 89.8602 61.8831 81.3473 54.0392V54.0392Z" fill="url(#paint11_radial_6_97)"/>
<path d="M47.1936 66.3505C47.1936 66.3505 48.9269 59.8919 59.6048 59.8919C60.7592 59.8919 64.0594 56.6708 64.1205 55.7367C64.1816 54.8026 57.2923 58.6042 50.0216 55.1834C42.1717 51.49 36.2156 55.7367 36.2156 55.7367C36.2156 55.7367 38.4777 61.3319 45.1116 61.3319C44.4158 67.4703 47.6614 74.6287 55.5178 78.3825C55.6934 78.4664 55.8584 78.5581 56.0388 78.6386C51.4531 76.2684 47.6666 71.7895 47.1936 66.3505V66.3505Z" fill="url(#paint12_radial_6_97)"/>
<path d="M98.7986 48.9926C97.1666 45.067 93.8611 40.8289 91.2655 39.4894C93.378 43.6308 94.6006 47.7851 95.0678 50.8856C95.0678 50.8917 95.0702 50.9069 95.0752 50.9481C90.8291 40.3648 83.6292 36.0973 77.75 26.8054C77.4531 26.3356 77.1555 25.8645 76.8655 25.3679C76.7178 25.1144 76.5799 24.8552 76.452 24.5911C76.2078 24.1195 76.0194 23.621 75.8906 23.1058C75.8915 23.0814 75.8833 23.0575 75.8675 23.0389C75.8517 23.0203 75.8295 23.0082 75.8053 23.0051C75.7823 22.9985 75.7579 22.9985 75.7348 23.0051C75.7295 23.007 75.7217 23.0131 75.7161 23.0153C75.7078 23.0186 75.6973 23.0261 75.6886 23.0309C75.6928 23.0253 75.7016 23.0126 75.7042 23.0097C66.2714 28.534 63.0714 38.7536 62.7773 43.8665C63.2148 43.8362 63.6511 43.7995 64.0964 43.7995C71.1359 43.7995 77.2669 47.6698 80.5495 53.4064C78.5445 51.9979 74.9542 50.6069 71.4953 51.2084C85.0017 57.9606 81.3758 81.2125 62.6602 80.3347C60.9935 80.2666 59.3465 79.949 57.7741 79.3923C57.4022 79.2525 57.0344 79.1021 56.6711 78.9414C56.4592 78.8448 56.2475 78.7472 56.0383 78.639C56.0458 78.6442 56.0561 78.65 56.0637 78.6547C55.8802 78.5664 55.6979 78.4756 55.5169 78.3823C55.6925 78.4662 55.8575 78.5579 56.0378 78.6384C51.4519 76.2684 47.6653 71.7895 47.1923 66.3504C47.1923 66.3504 48.9256 59.8919 59.6036 59.8919C60.758 59.8919 64.0581 56.6708 64.1192 55.7367C64.1053 55.4317 57.5697 52.832 55.0219 50.3217C53.6605 48.9804 53.0141 48.3337 52.4416 47.8486C52.131 47.5862 51.8063 47.3411 51.4689 47.1142C50.613 44.1198 50.5766 40.9506 51.3636 37.9373C47.5061 39.6937 44.5058 42.4701 42.3245 44.9217H42.3072C40.8186 43.0362 40.9236 36.8165 41.0084 35.5179C40.9906 35.4375 39.898 36.0851 39.7548 36.1828C38.4413 37.1204 37.2133 38.1724 36.0852 39.3265C34.8018 40.6285 33.6293 42.0353 32.5797 43.5322C32.5797 43.534 32.5786 43.5362 32.578 43.5381C32.578 43.5361 32.5791 43.534 32.5797 43.5322C30.1651 46.954 28.4525 50.8204 27.5411 54.9079C27.5231 54.9894 27.508 55.0737 27.4905 55.1558C27.4198 55.4864 27.102 57.164 27.0577 57.5239C27.0542 57.5515 27.0609 57.4964 27.0577 57.5239C26.7678 59.2575 26.5829 61.007 26.5039 62.7629C26.5039 62.827 26.5 62.8905 26.5 62.9547C26.5 83.6903 43.3125 100.5 64.0506 100.5C82.6233 100.5 98.0444 87.0175 101.063 69.3078C101.127 68.8272 101.178 68.344 101.234 67.8592C101.98 61.4201 101.151 54.6522 98.7986 48.9926ZM95.0734 50.9209C95.0753 50.9342 95.0777 50.9481 95.0797 50.9614L95.0784 50.9573L95.0734 50.9209V50.9209Z" fill="url(#paint13_linear_6_97)"/>
<defs>
<filter id="filter0_i_6_97" x="12" y="11" width="104" height="104" filterUnits="userSpaceOnUse" color-interpolation-filters="sRGB">
<feFlood flood-opacity="0" result="BackgroundImageFix"/>
<feBlend mode="normal" in="SourceGraphic" in2="BackgroundImageFix" result="shape"/>
<feColorMatrix in="SourceAlpha" type="matrix" values="0 0 0 0 0 0 0 0 0 0 0 0 0 0 0 0 0 0 127 0" result="hardAlpha"/>
<feOffset dy="-4"/>
<feComposite in2="hardAlpha" operator="arithmetic" k2="-1" k3="1"/>
<feColorMatrix type="matrix" values="0 0 0 0 0.0666667 0 0 0 0 0.0666667 0 0 0 0 0.0666667 0 0 0 0.2 0"/>
<feBlend mode="normal" in2="shape" result="effect1_innerShadow_6_97"/>
</filter>
<linearGradient id="paint0_linear_6_97" x1="64" y1="11" x2="64" y2="115" gradientUnits="userSpaceOnUse">
<stop stop-color="#7543E3"/>
<stop offset="1" stop-color="#0060E0"/>
</linearGradient>
<linearGradient id="paint1_linear_6_97" x1="64" y1="11" x2="64" y2="115" gradientUnits="userSpaceOnUse">
<stop stop-color="#FF7139" stop-opacity="0.2"/>
<stop offset="1" stop-color="#2D2D2D" stop-opacity="0.2"/>
<stop offset="1" stop-color="#F0F0F2" stop-opacity="0.2"/>
</linearGradient>
<linearGradient id="paint2_linear_6_97" x1="91.9374" y1="35.0126" x2="31.6425" y2="93.1757" gradientUnits="userSpaceOnUse">
<stop offset="0.05" stop-color="#FFF44F"/>
<stop offset="0.37" stop-color="#FF980E"/>
<stop offset="0.53" stop-color="#FF3647"/>
<stop offset="0.7" stop-color="#E31587"/>
</linearGradient>
<radialGradient id="paint3_radial_6_97" cx="0" cy="0" r="1" gradientUnits="userSpaceOnUse" gradientTransform="translate(78.4677 31.6392) scale(76.8003 78.0936)">
<stop offset="0.13" stop-color="#FFBD4F"/>
<stop offset="0.28" stop-color="#FF980E"/>
<stop offset="0.47" stop-color="#FF3750"/>
<stop offset="0.78" stop-color="#EB0878"/>
<stop offset="0.86" stop-color="#E50080"/>
</radialGradient>
<radialGradient id="paint4_radial_6_97" cx="0" cy="0" r="1" gradientUnits="userSpaceOnUse" gradientTransform="translate(56.1986 63.8936) scale(78.7203 78.0936)">
<stop offset="0.3" stop-color="#960E18"/>
<stop offset="0.35" stop-color="#B11927" stop-opacity="0.74"/>
<stop offset="0.43" stop-color="#DB293D" stop-opacity="0.34"/>
<stop offset="0.5" stop-color="#F5334B" stop-opacity="0.09"/>
<stop offset="0.53" stop-color="#FF3750" stop-opacity="0"/>
</radialGradient>
<radialGradient id="paint5_radial_6_97" cx="0" cy="0" r="1" gradientUnits="userSpaceOnUse" gradientTransform="translate(71.4207 19.3407) scale(25.2079 42.7967)">
<stop offset="0.13" stop-color="#FFF44F"/>
<stop offset="0.53" stop-color="#FF980E"/>
</radialGradient>
<radialGradient id="paint6_radial_6_97" cx="0" cy="0" r="1" gradientUnits="userSpaceOnUse" gradientTransform="translate(54.7857 84.0543) scale(33.3567 36.5594)">
<stop offset="0.35" stop-color="#3A8EE6"/>
<stop offset="0.67" stop-color="#9059FF"/>
<stop offset="1" stop-color="#C139E6"/>
</radialGradient>
<radialGradient id="paint7_radial_6_97" cx="0" cy="0" r="1" gradientUnits="userSpaceOnUse" gradientTransform="translate(60.4853 55.8634) scale(17.7124 21.57)">
<stop offset="0.21" stop-color="#9059FF" stop-opacity="0"/>
<stop offset="0.97" stop-color="#6E008B" stop-opacity="0.6"/>
</radialGradient>
<radialGradient id="paint8_radial_6_97" cx="0" cy="0" r="1" gradientUnits="userSpaceOnUse" gradientTransform="translate(61.5291 28.7612) scale(26.5187 26.6129)">
<stop offset="0.1" stop-color="#FFE226"/>
<stop offset="0.79" stop-color="#FF7139"/>
</radialGradient>
<radialGradient id="paint9_radial_6_97" cx="0" cy="0" r="1" gradientUnits="userSpaceOnUse" gradientTransform="translate(85.7479 11.3027) scale(126.606 106.279)">
<stop offset="0.11" stop-color="#FFF44F"/>
<stop offset="0.46" stop-color="#FF980E"/>
<stop offset="0.72" stop-color="#FF3647"/>
<stop offset="0.9" stop-color="#E31587"/>
</radialGradient>
<radialGradient id="paint10_radial_6_97" cx="0" cy="0" r="1" gradientUnits="userSpaceOnUse" gradientTransform="translate(38.7291 46.4) rotate(77.3946) scale(40.1677 173.759)">
<stop stop-color="#FFF44F"/>
<stop offset="0.3" stop-color="#FF980E"/>
<stop offset="0.57" stop-color="#FF3647"/>
<stop offset="0.74" stop-color="#E31587"/>
</radialGradient>
<radialGradient id="paint11_radial_6_97" cx="0" cy="0" r="1" gradientUnits="userSpaceOnUse" gradientTransform="translate(61.8018 38.3332) scale(72.6903 71.4134)">
<stop offset="0.14" stop-color="#FFF44F"/>
<stop offset="0.48" stop-color="#FF980E"/>
<stop offset="0.66" stop-color="#FF3647"/>
<stop offset="0.9" stop-color="#E31587"/>
</radialGradient>
<radialGradient id="paint12_radial_6_97" cx="0" cy="0" r="1" gradientUnits="userSpaceOnUse" gradientTransform="translate(80.6687 42.5099) scale(87.3713 78.1641)">
<stop offset="0.09" stop-color="#FFF44F"/>
<stop offset="0.63" stop-color="#FF980E"/>
</radialGradient>
<linearGradient id="paint13_linear_6_97" x1="86.5" y1="33.8502" x2="38.2851" y2="86.5304" gradientUnits="userSpaceOnUse">
<stop offset="0.17" stop-color="#FFF44F" stop-opacity="0.8"/>
<stop offset="0.6" stop-color="#FFF44F" stop-opacity="0"/>
</linearGradient>
</defs>
</svg>
